<svg width="40" height="40" viewBox="0 0 40 40" fill="none" xmlns="http://www.w3.org/2000/svg">
<path d="M20 40C31.0457 40 40 31.0457 40 20C40 8.9543 31.0457 0 20 0C8.9543 0 0 8.9543 0 20C0 31.0457 8.9543 40 20 40Z" fill="#B0E78C" fill-opacity="0.7"/>
<path d="M29.1729 11.0202C26.9304 8.77687 23.9493 7.54112 20.7743 7.5401C14.2314 7.5401 8.90626 12.8632 8.90295 19.4063C8.90295 21.499 9.44971 23.539 10.4868 25.3378L8.80347 31.488L15.096 29.8368C16.8306 30.7833 18.7821 31.2822 20.7707 31.2822H20.7743C27.3156 31.2822 32.6423 25.9591 32.6456 19.4152C32.6458 16.2438 31.4136 13.2627 29.1729 11.0202ZM20.7743 29.2791H20.7707C19.0004 29.2773 17.2639 28.8015 15.7493 27.9032L15.387 27.6882L11.6548 28.6685L12.6509 25.0284L12.4148 24.6557C11.4276 23.0858 10.9055 21.2695 10.9073 19.4061C10.9091 13.9677 15.3356 9.5427 20.7776 9.5427C23.4124 9.54448 25.8913 10.5716 27.754 12.436C29.6164 14.3005 30.6427 16.7781 30.6409 19.414C30.6394 24.8546 26.2129 29.2791 20.7743 29.2791ZM26.1864 21.8911C25.8898 21.7437 24.4319 21.0265 24.1604 20.927C23.889 20.8276 23.6897 20.7777 23.4928 21.0743C23.2959 21.3708 22.7275 22.0384 22.5537 22.2373C22.3794 22.436 22.2074 22.461 21.911 22.3119C21.6144 22.1625 20.6575 21.8503 19.5245 20.84C18.6439 20.0533 18.0473 19.0822 17.8768 18.7855C17.7028 18.4881 17.8573 18.3283 18.0046 18.18C18.1397 18.0477 18.3028 17.8337 18.4503 17.6607C18.5976 17.4874 18.6472 17.364 18.747 17.1661C18.8465 16.9681 18.7966 16.7951 18.722 16.6468C18.6475 16.4977 18.0544 15.0381 17.8076 14.445C17.568 13.8662 17.323 13.9443 17.14 13.9354C16.9678 13.9275 16.7691 13.9257 16.5719 13.9257C16.375 13.9257 16.0518 13.9995 15.7819 14.2967C15.5084 14.5933 14.7431 15.3106 14.7431 16.7699C14.7431 18.2293 15.8066 19.6391 15.9541 19.8373C16.1015 20.0353 18.0458 23.0289 21.0198 24.3145C21.7284 24.6198 22.2805 24.8027 22.712 24.9393C23.4221 25.165 24.0701 25.133 24.5818 25.0566C25.1496 24.9714 26.336 24.3394 26.5826 23.6469C26.8296 22.9543 26.8296 22.3612 26.7548 22.2371C26.6798 22.1129 26.4846 22.0384 26.1864 21.8911Z" fill="white"/>
</svg>
