<svg width="40" height="40" viewBox="0 0 40 40" fill="none" xmlns="http://www.w3.org/2000/svg">
<path fill-rule="evenodd" clip-rule="evenodd" d="M20 40C31.0457 40 40 31.0457 40 20C40 8.9543 31.0457 0 20 0C8.9543 0 0 8.9543 0 20C0 31.0457 8.9543 40 20 40Z" fill="#CF797A" fill-opacity="0.7"/>
<path fill-rule="evenodd" clip-rule="evenodd" d="M17.2467 23.4835L17.2459 15.9378L24.4509 19.7236L17.2467 23.4835ZM33.0667 14.6303C33.0667 14.6303 32.8059 12.7797 32.0067 11.9648C30.9925 10.8948 29.8559 10.8897 29.335 10.8276C25.6034 10.5557 20.0059 10.5557 20.0059 10.5557H19.9942C19.9942 10.5557 14.3967 10.5557 10.665 10.8276C10.1434 10.8897 9.00752 10.8948 7.99252 11.9648C7.19335 12.7797 6.93335 14.6303 6.93335 14.6303C6.93335 14.6303 6.66669 16.8039 6.66669 18.9767V21.0144C6.66669 23.188 6.93335 25.3608 6.93335 25.3608C6.93335 25.3608 7.19335 27.2114 7.99252 28.0263C9.00752 29.0963 10.34 29.0628 10.9334 29.1744C13.0667 29.3808 20 29.4446 20 29.4446C20 29.4446 25.6034 29.4362 29.335 29.1643C29.8559 29.1014 30.9925 29.0963 32.0067 28.0263C32.8059 27.2114 33.0667 25.3608 33.0667 25.3608C33.0667 25.3608 33.3334 23.188 33.3334 21.0144V18.9767C33.3334 16.8039 33.0667 14.6303 33.0667 14.6303Z" fill="white"/>
</svg>
