<svg width="198" height="19" viewBox="0 0 198 19" fill="none" xmlns="http://www.w3.org/2000/svg">
<path d="M12.1406 17.4141C12.1406 17.6406 12.0586 17.8203 11.8945 17.9531C11.7383 18.0781 11.5664 18.1406 11.3789 18.1406C11.2305 18.1406 11.0859 18.0977 10.9453 18.0117C10.8125 17.9258 10.7227 17.7969 10.6758 17.625C10.5352 17.1484 9.90234 16.3711 8.77734 15.293C7.88672 14.4336 6.87891 13.5391 5.75391 12.6094C4.62891 11.6797 3.37891 10.7109 2.00391 9.70312C1.94922 11.9375 1.90625 13.7148 1.875 15.0352C1.84375 16.3477 1.82422 17.207 1.81641 17.6133C1.81641 17.8555 1.73438 18.0352 1.57031 18.1523C1.41406 18.2773 1.24219 18.3398 1.05469 18.3398C0.859375 18.3398 0.683594 18.2773 0.527344 18.1523C0.371094 18.0352 0.292969 17.8555 0.292969 17.6133C0.292969 16.9961 0.328125 15.3789 0.398438 12.7617C0.46875 10.1367 0.558594 6.49609 0.667969 1.83984C0.675781 1.63672 0.757812 1.46484 0.914062 1.32422C1.07812 1.17578 1.25781 1.10156 1.45312 1.10156C1.64844 1.10156 1.82031 1.17969 1.96875 1.33594C2.11719 1.48438 2.19141 1.66406 2.19141 1.875C2.16016 3.03125 2.13281 4.13281 2.10938 5.17969C2.08594 6.21875 2.0625 7.19141 2.03906 8.09766L2.47266 7.75781C3.53516 6.94531 4.48047 6.19531 5.30859 5.50781C6.14453 4.8125 6.86719 4.18359 7.47656 3.62109C8.71094 2.48047 9.40625 1.78906 9.5625 1.54688C9.64844 1.41406 9.75391 1.30078 9.87891 1.20703C10.0039 1.10547 10.1445 1.05469 10.3008 1.05469C10.5039 1.05469 10.6758 1.13672 10.8164 1.30078C10.9648 1.45703 11.0391 1.63281 11.0391 1.82812C11.0391 1.97656 11 2.11328 10.9219 2.23828C10.3359 3.15234 8.42969 4.91797 5.20312 7.53516C4.52344 8.08203 3.94922 8.53906 3.48047 8.90625C4.74609 9.85156 5.91797 10.7734 6.99609 11.6719C8.07422 12.5625 9.05078 13.4336 9.92578 14.2852C11.4023 15.7148 12.1406 16.7578 12.1406 17.4141ZM15.2812 0.9375C15.4688 0.9375 15.6367 1.01563 15.7852 1.17188C15.9414 1.32812 16.0195 1.50391 16.0195 1.69922L16.1719 17.5547C16.1719 17.8047 16.0898 17.9922 15.9258 18.1172C15.7695 18.2422 15.5938 18.3047 15.3984 18.3047C15.2109 18.3047 15.0391 18.2422 14.8828 18.1172C14.7266 18 14.6484 17.8203 14.6484 17.5781L14.4961 1.71094C14.4961 1.50781 14.5742 1.32812 14.7305 1.17188C14.8945 1.01563 15.0781 0.9375 15.2812 0.9375ZM30.3516 17.4141C30.3516 17.6406 30.2695 17.8203 30.1055 17.9531C29.9492 18.0781 29.7773 18.1406 29.5898 18.1406C29.4414 18.1406 29.2969 18.0977 29.1562 18.0117C29.0234 17.9258 28.9336 17.7969 28.8867 17.625C28.7461 17.1484 28.1133 16.3711 26.9883 15.293C26.0977 14.4336 25.0898 13.5391 23.9648 12.6094C22.8398 11.6797 21.5898 10.7109 20.2148 9.70312C20.1602 11.9375 20.1172 13.7148 20.0859 15.0352C20.0547 16.3477 20.0352 17.207 20.0273 17.6133C20.0273 17.8555 19.9453 18.0352 19.7812 18.1523C19.625 18.2773 19.4531 18.3398 19.2656 18.3398C19.0703 18.3398 18.8945 18.2773 18.7383 18.1523C18.582 18.0352 18.5039 17.8555 18.5039 17.6133C18.5039 16.9961 18.5391 15.3789 18.6094 12.7617C18.6797 10.1367 18.7695 6.49609 18.8789 1.83984C18.8867 1.63672 18.9688 1.46484 19.125 1.32422C19.2891 1.17578 19.4688 1.10156 19.6641 1.10156C19.8594 1.10156 20.0312 1.17969 20.1797 1.33594C20.3281 1.48438 20.4023 1.66406 20.4023 1.875C20.3711 3.03125 20.3438 4.13281 20.3203 5.17969C20.2969 6.21875 20.2734 7.19141 20.25 8.09766L20.6836 7.75781C21.7461 6.94531 22.6914 6.19531 23.5195 5.50781C24.3555 4.8125 25.0781 4.18359 25.6875 3.62109C26.9219 2.48047 27.6172 1.78906 27.7734 1.54688C27.8594 1.41406 27.9648 1.30078 28.0898 1.20703C28.2148 1.10547 28.3555 1.05469 28.5117 1.05469C28.7148 1.05469 28.8867 1.13672 29.0273 1.30078C29.1758 1.45703 29.25 1.63281 29.25 1.82812C29.25 1.97656 29.2109 2.11328 29.1328 2.23828C28.5469 3.15234 26.6406 4.91797 23.4141 7.53516C22.7344 8.08203 22.1602 8.53906 21.6914 8.90625C22.957 9.85156 24.1289 10.7734 25.207 11.6719C26.2852 12.5625 27.2617 13.4336 28.1367 14.2852C29.6133 15.7148 30.3516 16.7578 30.3516 17.4141ZM33.4453 18.457C33.2656 18.457 33.0938 18.3789 32.9297 18.2227C32.7656 18.0742 32.6914 17.9062 32.707 17.7188C32.9883 13.9453 33.5938 10.5508 34.5234 7.53516C35.4531 4.53516 36.5625 2.54687 37.8516 1.57031C38.3828 1.17188 38.8984 0.972656 39.3984 0.972656C40.8203 0.972656 42.1523 2.54297 43.3945 5.68359C44.4805 8.44141 45.4258 12.0586 46.2305 16.5352L46.418 17.5664C46.4258 17.6133 46.4297 17.6562 46.4297 17.6953C46.4297 17.9297 46.3438 18.1094 46.1719 18.2344C46.0078 18.3672 45.8281 18.4336 45.6328 18.4336C45.4688 18.4336 45.3164 18.3828 45.1758 18.2812C45.0352 18.1875 44.9453 18.0352 44.9062 17.8242L44.7305 16.8047C44.5508 15.7969 44.3633 14.8359 44.168 13.9219C43.9727 13 43.7695 12.125 43.5586 11.2969H35.1562C34.6953 13.5781 34.3867 15.7344 34.2305 17.7656C34.2148 17.9688 34.1289 18.1328 33.9727 18.2578C33.8164 18.3906 33.6406 18.457 33.4453 18.457ZM35.4961 9.77344H43.1602C42.2852 6.65625 41.3789 4.50781 40.4414 3.32812C40.2227 3.04688 40.0039 2.84375 39.7852 2.71875C39.582 2.60938 39.4336 2.55859 39.3398 2.56641C38.8398 2.62891 38.3477 3.02344 37.8633 3.75C36.9258 5.15625 36.1367 7.16406 35.4961 9.77344ZM56.8711 10.6523L56.8828 17.7891C56.8828 18.0312 56.8008 18.2148 56.6367 18.3398C56.4805 18.4648 56.3086 18.5273 56.1211 18.5273C55.9258 18.5273 55.75 18.4648 55.5938 18.3398C55.4375 18.2148 55.3594 18.0312 55.3594 17.7891L55.3242 1.93359C55.3242 1.73047 55.4023 1.55469 55.5586 1.40625C55.7148 1.25 55.8906 1.17188 56.0859 1.17188C56.0938 1.17188 56.1016 1.17188 56.1094 1.17188C58.9688 1.26562 61.168 1.89453 62.707 3.05859C63.9102 3.96484 64.5117 5.02734 64.5117 6.24609C64.5117 7.36328 63.9922 8.32812 62.9531 9.14062C61.6484 10.1562 59.8438 10.6641 57.5391 10.6641C57.3203 10.6641 57.0977 10.6602 56.8711 10.6523ZM56.8594 9.12891C57.0859 9.13672 57.3047 9.14062 57.5156 9.14062C59.4844 9.14062 60.9844 8.74219 62.0156 7.94531C62.6641 7.44531 62.9883 6.87891 62.9883 6.24609C62.9883 5.53516 62.5898 4.87891 61.793 4.27734C60.6367 3.41797 58.9883 2.90625 56.8477 2.74219L56.8594 9.12891ZM67.7344 18.4453C67.5391 18.4453 67.3633 18.3633 67.207 18.1992C67.0508 18.043 66.9805 17.8594 66.9961 17.6484C67.0352 16.8672 67.0547 15.6992 67.0547 14.1445C67.0547 13.082 67.043 11.8359 67.0195 10.4062C67.0039 8.96875 66.9766 7.34766 66.9375 5.54297L66.8555 1.93359C66.8477 1.73828 66.9102 1.56641 67.043 1.41797C67.1836 1.26953 67.3398 1.18359 67.5117 1.16016C69.1055 0.949219 70.5234 0.84375 71.7656 0.84375C73.4844 0.84375 74.8672 1.04687 75.9141 1.45312C77.9844 2.25781 79.0195 3.88672 79.0195 6.33984C79.0195 9.36328 77.1133 11.1914 73.3008 11.8242C73.082 11.8555 72.8438 11.8867 72.5859 11.918C72.3359 11.9492 72.0625 11.9727 71.7656 11.9883L80.2148 17.0039C80.4492 17.1445 80.5664 17.3594 80.5664 17.6484C80.5664 17.8828 80.4492 18.0938 80.2148 18.2812C79.9883 18.4766 79.7305 18.4883 79.4414 18.3164L68.6484 11.918C68.6406 11.9102 68.6289 11.9023 68.6133 11.8945C68.5977 11.8789 68.582 11.8672 68.5664 11.8594C68.5742 12.75 68.5781 13.5469 68.5781 14.25C68.5781 15.8281 68.5586 16.9883 68.5195 17.7305C68.5039 17.9336 68.418 18.1016 68.2617 18.2344C68.1055 18.375 67.9297 18.4453 67.7344 18.4453ZM68.5547 10.6641C68.6953 10.5547 68.8594 10.5 69.0469 10.5C69.3438 10.5078 69.6328 10.5117 69.9141 10.5117C72.75 10.5117 74.7461 10.1367 75.9023 9.38672C76.9648 8.69922 77.4961 7.67969 77.4961 6.32812C77.4961 5.39062 77.3164 4.64844 76.957 4.10156C76.1758 2.92969 74.4375 2.34375 71.7422 2.34375C70.7578 2.34375 69.6406 2.42188 68.3906 2.57812L68.4609 5.51953C68.4844 6.48828 68.5039 7.40234 68.5195 8.26172C68.5352 9.11328 68.5469 9.91406 68.5547 10.6641ZM100.523 10.0547C100.523 11.2344 100.293 12.3125 99.832 13.2891C99.3789 14.2578 98.7461 15.0938 97.9336 15.7969C97.1289 16.4922 96.1953 17.0312 95.1328 17.4141C94.0703 17.7969 92.9336 17.9883 91.7227 17.9883C91.168 17.9883 90.6094 17.9414 90.0469 17.8477C89.4844 17.7539 88.9258 17.6055 88.3711 17.4023C87.1445 16.957 86.0547 16.2461 85.1016 15.2695C84.1484 14.293 83.5039 13.0977 83.168 11.6836C83.0117 11.0352 82.9336 10.3984 82.9336 9.77344C82.9336 8.89062 83.082 8.05078 83.3789 7.25391C83.6758 6.44922 84.0625 5.72266 84.5391 5.07422C85.0156 4.41797 85.5273 3.86719 86.0742 3.42188C87.6367 2.14063 89.4336 1.46094 91.4648 1.38281C91.5508 1.375 91.625 1.38281 91.6875 1.40625C91.7578 1.42187 91.8203 1.43359 91.875 1.44141C93.3594 1.51953 94.6992 1.90625 95.8945 2.60156C97.0898 3.28906 98.0469 4.09766 98.7656 5.02734C99.9375 6.55078 100.523 8.22656 100.523 10.0547ZM91.5469 2.90625C89.8438 2.97656 88.3164 3.5625 86.9648 4.66406C85.6133 5.76562 84.8047 7.16797 84.5391 8.87109C84.4922 9.18359 84.4688 9.5 84.4688 9.82031C84.4688 10.5469 84.5781 11.2305 84.7969 11.8711C85.0156 12.5039 85.2812 13.0352 85.5938 13.4648C86.2188 14.3242 87.0469 15.043 88.0781 15.6211C89.1172 16.1914 90.3164 16.4766 91.6758 16.4766C92.1602 16.4766 92.6562 16.4336 93.1641 16.3477C94.2188 16.1758 95.1875 15.8164 96.0703 15.2695C96.9531 14.7148 97.6641 14.0039 98.2031 13.1367C98.7422 12.2617 99.0117 11.2578 99.0117 10.125C99.0117 9.14844 98.8242 8.25781 98.4492 7.45312C98.082 6.64062 97.5938 5.92969 96.9844 5.32031C96.3828 4.71094 95.7266 4.22266 95.0156 3.85547C93.9766 3.31641 92.9023 3.01953 91.793 2.96484C91.7227 2.96484 91.6406 2.94531 91.5469 2.90625ZM123.809 1.00781C124.035 1.00781 124.215 1.09375 124.348 1.26562C124.48 1.4375 124.547 1.60937 124.547 1.78125L124.652 17.8594C124.652 18.1016 124.574 18.2852 124.418 18.4102C124.262 18.5352 124.086 18.5977 123.891 18.5977C123.703 18.5977 123.527 18.5352 123.363 18.4102C123.207 18.2852 123.129 18.1016 123.129 17.8594L123.047 4.61719C121.594 7.03906 120.523 8.67969 119.836 9.53906C119.133 10.4141 118.586 10.9531 118.195 11.1562C118.023 11.25 117.84 11.2969 117.645 11.2969C117.254 11.2969 116.82 11.082 116.344 10.6523C115.781 10.1289 115.219 9.53125 114.656 8.85938C114.094 8.1875 113.551 7.50391 113.027 6.80859C112.512 6.11328 112.023 5.46484 111.562 4.86328L111 4.08984L111.164 17.6836C111.164 17.9336 111.082 18.1211 110.918 18.2461C110.762 18.3711 110.586 18.4336 110.391 18.4336C110.203 18.4336 110.031 18.3711 109.875 18.2461C109.719 18.1289 109.641 17.9492 109.641 17.707L109.441 1.74609C109.441 1.51172 109.52 1.32812 109.676 1.19531C109.832 1.05469 110.012 0.984375 110.215 0.984375C110.449 0.984375 110.645 1.07422 110.801 1.25391L112.793 3.96094C115.223 7.17188 116.844 9.07812 117.656 9.67969C118.219 9.21875 118.879 8.39844 119.637 7.21875C120.293 6.19531 120.871 5.26953 121.371 4.44141C121.879 3.60547 122.309 2.87109 122.66 2.23828L123.117 1.40625C123.172 1.30469 123.262 1.21484 123.387 1.13672C123.52 1.05078 123.66 1.00781 123.809 1.00781ZM127.734 18.457C127.555 18.457 127.383 18.3789 127.219 18.2227C127.055 18.0742 126.98 17.9062 126.996 17.7188C127.277 13.9453 127.883 10.5508 128.812 7.53516C129.742 4.53516 130.852 2.54687 132.141 1.57031C132.672 1.17188 133.188 0.972656 133.688 0.972656C135.109 0.972656 136.441 2.54297 137.684 5.68359C138.77 8.44141 139.715 12.0586 140.52 16.5352L140.707 17.5664C140.715 17.6133 140.719 17.6562 140.719 17.6953C140.719 17.9297 140.633 18.1094 140.461 18.2344C140.297 18.3672 140.117 18.4336 139.922 18.4336C139.758 18.4336 139.605 18.3828 139.465 18.2812C139.324 18.1875 139.234 18.0352 139.195 17.8242L139.02 16.8047C138.84 15.7969 138.652 14.8359 138.457 13.9219C138.262 13 138.059 12.125 137.848 11.2969H129.445C128.984 13.5781 128.676 15.7344 128.52 17.7656C128.504 17.9688 128.418 18.1328 128.262 18.2578C128.105 18.3906 127.93 18.457 127.734 18.457ZM129.785 9.77344H137.449C136.574 6.65625 135.668 4.50781 134.73 3.32812C134.512 3.04688 134.293 2.84375 134.074 2.71875C133.871 2.60938 133.723 2.55859 133.629 2.56641C133.129 2.62891 132.637 3.02344 132.152 3.75C131.215 5.15625 130.426 7.16406 129.785 9.77344ZM154.898 17.4141C154.898 17.6406 154.816 17.8203 154.652 17.9531C154.496 18.0781 154.324 18.1406 154.137 18.1406C153.988 18.1406 153.844 18.0977 153.703 18.0117C153.57 17.9258 153.48 17.7969 153.434 17.625C153.293 17.1484 152.66 16.3711 151.535 15.293C150.645 14.4336 149.637 13.5391 148.512 12.6094C147.387 11.6797 146.137 10.7109 144.762 9.70312C144.707 11.9375 144.664 13.7148 144.633 15.0352C144.602 16.3477 144.582 17.207 144.574 17.6133C144.574 17.8555 144.492 18.0352 144.328 18.1523C144.172 18.2773 144 18.3398 143.812 18.3398C143.617 18.3398 143.441 18.2773 143.285 18.1523C143.129 18.0352 143.051 17.8555 143.051 17.6133C143.051 16.9961 143.086 15.3789 143.156 12.7617C143.227 10.1367 143.316 6.49609 143.426 1.83984C143.434 1.63672 143.516 1.46484 143.672 1.32422C143.836 1.17578 144.016 1.10156 144.211 1.10156C144.406 1.10156 144.578 1.17969 144.727 1.33594C144.875 1.48438 144.949 1.66406 144.949 1.875C144.918 3.03125 144.891 4.13281 144.867 5.17969C144.844 6.21875 144.82 7.19141 144.797 8.09766L145.23 7.75781C146.293 6.94531 147.238 6.19531 148.066 5.50781C148.902 4.8125 149.625 4.18359 150.234 3.62109C151.469 2.48047 152.164 1.78906 152.32 1.54688C152.406 1.41406 152.512 1.30078 152.637 1.20703C152.762 1.10547 152.902 1.05469 153.059 1.05469C153.262 1.05469 153.434 1.13672 153.574 1.30078C153.723 1.45703 153.797 1.63281 153.797 1.82812C153.797 1.97656 153.758 2.11328 153.68 2.23828C153.094 3.15234 151.188 4.91797 147.961 7.53516C147.281 8.08203 146.707 8.53906 146.238 8.90625C147.504 9.85156 148.676 10.7734 149.754 11.6719C150.832 12.5625 151.809 13.4336 152.684 14.2852C154.16 15.7148 154.898 16.7578 154.898 17.4141ZM161.848 2.73047C161.355 2.73047 160.84 2.73828 160.301 2.75391C159.762 2.76172 159.309 2.77734 158.941 2.80078C158.988 5.05078 159.012 7.07422 159.012 8.87109L167.508 8.92969C167.75 8.92969 167.93 9.01172 168.047 9.17578C168.172 9.33203 168.234 9.50391 168.234 9.69141C168.234 9.88672 168.172 10.0625 168.047 10.2188C167.93 10.375 167.746 10.4531 167.496 10.4531L159 10.3945C158.992 11.4336 158.977 12.3672 158.953 13.1953C158.93 14.0234 158.902 14.7461 158.871 15.3633L158.812 16.4883C161.375 16.4805 163.465 16.4609 165.082 16.4297C166.707 16.3906 167.867 16.3438 168.562 16.2891C168.797 16.2656 168.977 16.3438 169.102 16.5234C169.227 16.6953 169.289 16.875 169.289 17.0625C169.289 17.2422 169.234 17.4102 169.125 17.5664C169.016 17.7148 168.848 17.7969 168.621 17.8125C167.855 17.8828 166.586 17.9336 164.812 17.9648C163.047 17.9961 160.781 18.0117 158.016 18.0117C157.82 18.0117 157.645 17.9336 157.488 17.7773C157.332 17.6211 157.254 17.4336 157.254 17.2148C157.254 17.1289 157.262 16.8633 157.277 16.418C157.293 15.9648 157.312 15.4023 157.336 14.7305C157.359 14.0586 157.383 13.3477 157.406 12.5977C157.43 11.8398 157.449 11.1094 157.465 10.4062C157.48 9.69531 157.488 9.07812 157.488 8.55469C157.488 7.57812 157.473 6.55078 157.441 5.47266C157.418 4.38672 157.406 3.25391 157.406 2.07422C157.406 1.87891 157.477 1.70703 157.617 1.55859C157.766 1.41016 157.934 1.33203 158.121 1.32422L158.965 1.26562C159.637 1.22656 160.332 1.20313 161.051 1.19531C161.77 1.1875 162.512 1.19531 163.277 1.21875C166.285 1.3125 168.418 1.64062 169.676 2.20312C169.973 2.33594 170.117 2.58203 170.109 2.94141C170.109 3.13672 170.043 3.30859 169.91 3.45703C169.785 3.59766 169.613 3.66797 169.395 3.66797C169.285 3.66797 169.172 3.64063 169.055 3.58594C167.758 3.01562 165.355 2.73047 161.848 2.73047ZM179.062 16.6992C180.148 16.6992 181.051 16.4805 181.77 16.043C182.488 15.5977 183.059 14.9844 183.48 14.2031C183.91 13.4141 184.215 12.5039 184.395 11.4727C184.574 10.4414 184.664 9.33594 184.664 8.15625C184.664 6.35938 184.449 4.23828 184.02 1.79297C184.012 1.74609 184.008 1.69922 184.008 1.65234C184.008 1.41797 184.09 1.23828 184.254 1.11328C184.426 0.980469 184.609 0.914062 184.805 0.914062C184.969 0.914062 185.117 0.964844 185.25 1.06641C185.391 1.16016 185.48 1.3125 185.52 1.52344C185.957 4.04687 186.176 6.28906 186.176 8.25C186.176 12.3906 185.191 15.2734 183.223 16.8984C182.707 17.3281 182.09 17.6602 181.371 17.8945C180.652 18.1289 179.891 18.2461 179.086 18.2461C177.711 18.2461 176.621 17.9844 175.816 17.4609C175.012 16.9375 174.395 16.2148 173.965 15.293C173.543 14.3633 173.215 13.3047 172.98 12.1172C172.637 10.3359 172.465 7.82031 172.465 4.57031C172.465 3.70312 172.477 2.78906 172.5 1.82812C172.508 1.625 172.59 1.45312 172.746 1.3125C172.91 1.16406 173.09 1.08984 173.285 1.08984C173.48 1.08984 173.652 1.16797 173.801 1.32422C173.949 1.48047 174.023 1.66406 174.023 1.875C174 2.89063 173.988 3.84375 173.988 4.73438C173.988 7.82812 174.148 10.1875 174.469 11.8125C174.891 13.9375 175.484 15.293 176.25 15.8789C176.969 16.4258 177.906 16.6992 179.062 16.6992ZM190.066 10.6523L190.078 17.7891C190.078 18.0312 189.996 18.2148 189.832 18.3398C189.676 18.4648 189.504 18.5273 189.316 18.5273C189.121 18.5273 188.945 18.4648 188.789 18.3398C188.633 18.2148 188.555 18.0312 188.555 17.7891L188.52 1.93359C188.52 1.73047 188.598 1.55469 188.754 1.40625C188.91 1.25 189.086 1.17188 189.281 1.17188C189.289 1.17188 189.297 1.17188 189.305 1.17188C192.164 1.26562 194.363 1.89453 195.902 3.05859C197.105 3.96484 197.707 5.02734 197.707 6.24609C197.707 7.36328 197.188 8.32812 196.148 9.14062C194.844 10.1562 193.039 10.6641 190.734 10.6641C190.516 10.6641 190.293 10.6602 190.066 10.6523ZM190.055 9.12891C190.281 9.13672 190.5 9.14062 190.711 9.14062C192.68 9.14062 194.18 8.74219 195.211 7.94531C195.859 7.44531 196.184 6.87891 196.184 6.24609C196.184 5.53516 195.785 4.87891 194.988 4.27734C193.832 3.41797 192.184 2.90625 190.043 2.74219L190.055 9.12891Z" fill="#FFEEC1"/>
</svg>
