<svg width="227" height="100" viewBox="0 0 227 100" fill="none" xmlns="http://www.w3.org/2000/svg">
<path d="M27.3848 37.6816C27.3848 38.1914 27.2002 38.5957 26.8311 38.8945C26.4795 39.1758 26.0928 39.3164 25.6709 39.3164C25.3369 39.3164 25.0117 39.2197 24.6953 39.0264C24.3965 38.833 24.1943 38.543 24.0889 38.1562C23.7725 37.084 22.3486 35.335 19.8174 32.9092C17.8135 30.9756 15.5459 28.9629 13.0146 26.8711C10.4834 24.7793 7.6709 22.5996 4.57715 20.332C4.4541 25.3594 4.35742 29.3584 4.28711 32.3291C4.2168 35.2822 4.17285 37.2158 4.15527 38.1299C4.15527 38.6748 3.9707 39.0791 3.60156 39.3428C3.25 39.624 2.86328 39.7646 2.44141 39.7646C2.00195 39.7646 1.60645 39.624 1.25488 39.3428C0.90332 39.0791 0.727539 38.6748 0.727539 38.1299C0.727539 36.7412 0.806641 33.1025 0.964844 27.2139C1.12305 21.3076 1.3252 13.1162 1.57129 2.63965C1.58887 2.18262 1.77344 1.7959 2.125 1.47949C2.49414 1.14551 2.89844 0.978516 3.33789 0.978516C3.77734 0.978516 4.16406 1.1543 4.49805 1.50586C4.83203 1.83984 4.99902 2.24414 4.99902 2.71875C4.92871 5.32031 4.86719 7.79883 4.81445 10.1543C4.76172 12.4922 4.70898 14.6807 4.65625 16.7197L5.63184 15.9551C8.02246 14.127 10.1494 12.4395 12.0127 10.8926C13.8936 9.32813 15.5195 7.91309 16.8906 6.64746C19.668 4.08105 21.2324 2.52539 21.584 1.98047C21.7773 1.68164 22.0146 1.42676 22.2959 1.21582C22.5771 0.987305 22.8936 0.873047 23.2451 0.873047C23.7021 0.873047 24.0889 1.05762 24.4053 1.42676C24.7393 1.77832 24.9062 2.17383 24.9062 2.61328C24.9062 2.94727 24.8184 3.25488 24.6426 3.53613C23.3242 5.59277 19.0352 9.56543 11.7754 15.4541C10.2461 16.6846 8.9541 17.7129 7.89941 18.5391C10.7471 20.666 13.3838 22.7402 15.8096 24.7617C18.2354 26.7656 20.4326 28.7256 22.4014 30.6416C25.7236 33.8584 27.3848 36.2051 27.3848 37.6816ZM34.4512 0.609375C34.873 0.609375 35.251 0.785156 35.585 1.13672C35.9365 1.48828 36.1123 1.88379 36.1123 2.32324L36.4551 37.998C36.4551 38.5605 36.2705 38.9824 35.9014 39.2637C35.5498 39.5449 35.1543 39.6855 34.7148 39.6855C34.293 39.6855 33.9062 39.5449 33.5547 39.2637C33.2031 39 33.0273 38.5957 33.0273 38.0508L32.6846 2.34961C32.6846 1.89258 32.8604 1.48828 33.2119 1.13672C33.5811 0.785156 33.9941 0.609375 34.4512 0.609375ZM68.3594 37.6816C68.3594 38.1914 68.1748 38.5957 67.8057 38.8945C67.4541 39.1758 67.0674 39.3164 66.6455 39.3164C66.3115 39.3164 65.9863 39.2197 65.6699 39.0264C65.3711 38.833 65.1689 38.543 65.0635 38.1562C64.7471 37.084 63.3232 35.335 60.792 32.9092C58.7881 30.9756 56.5205 28.9629 53.9893 26.8711C51.458 24.7793 48.6455 22.5996 45.5518 20.332C45.4287 25.3594 45.332 29.3584 45.2617 32.3291C45.1914 35.2822 45.1475 37.2158 45.1299 38.1299C45.1299 38.6748 44.9453 39.0791 44.5762 39.3428C44.2246 39.624 43.8379 39.7646 43.416 39.7646C42.9766 39.7646 42.5811 39.624 42.2295 39.3428C41.8779 39.0791 41.7021 38.6748 41.7021 38.1299C41.7021 36.7412 41.7812 33.1025 41.9395 27.2139C42.0977 21.3076 42.2998 13.1162 42.5459 2.63965C42.5635 2.18262 42.748 1.7959 43.0996 1.47949C43.4688 1.14551 43.873 0.978516 44.3125 0.978516C44.752 0.978516 45.1387 1.1543 45.4727 1.50586C45.8066 1.83984 45.9736 2.24414 45.9736 2.71875C45.9033 5.32031 45.8418 7.79883 45.7891 10.1543C45.7363 12.4922 45.6836 14.6807 45.6309 16.7197L46.6064 15.9551C48.9971 14.127 51.124 12.4395 52.9873 10.8926C54.8682 9.32813 56.4941 7.91309 57.8652 6.64746C60.6426 4.08105 62.207 2.52539 62.5586 1.98047C62.752 1.68164 62.9893 1.42676 63.2705 1.21582C63.5518 0.987305 63.8682 0.873047 64.2197 0.873047C64.6768 0.873047 65.0635 1.05762 65.3799 1.42676C65.7139 1.77832 65.8809 2.17383 65.8809 2.61328C65.8809 2.94727 65.793 3.25488 65.6172 3.53613C64.2988 5.59277 60.0098 9.56543 52.75 15.4541C51.2207 16.6846 49.9287 17.7129 48.874 18.5391C51.7217 20.666 54.3584 22.7402 56.7842 24.7617C59.21 26.7656 61.4072 28.7256 63.376 30.6416C66.6982 33.8584 68.3594 36.2051 68.3594 37.6816ZM75.3203 40.0283C74.916 40.0283 74.5293 39.8525 74.1602 39.501C73.791 39.167 73.624 38.7891 73.6592 38.3672C74.292 29.877 75.6543 22.2393 77.7461 15.4541C79.8379 8.7041 82.334 4.23047 85.2344 2.0332C86.4297 1.13672 87.5898 0.688477 88.7148 0.688477C91.9141 0.688477 94.9111 4.22168 97.7061 11.2881C100.149 17.4932 102.276 25.6318 104.087 35.7041L104.509 38.0244C104.526 38.1299 104.535 38.2266 104.535 38.3145C104.535 38.8418 104.342 39.2461 103.955 39.5273C103.586 39.8262 103.182 39.9756 102.742 39.9756C102.373 39.9756 102.03 39.8613 101.714 39.6328C101.397 39.4219 101.195 39.0791 101.107 38.6045L100.712 36.3105C100.308 34.043 99.8857 31.8809 99.4463 29.8242C99.0068 27.75 98.5498 25.7812 98.0752 23.918H79.1699C78.1328 29.0508 77.4385 33.9023 77.0869 38.4727C77.0518 38.9297 76.8584 39.2988 76.5068 39.5801C76.1553 39.8789 75.7598 40.0283 75.3203 40.0283ZM79.9346 20.4902H97.1787C95.21 13.4766 93.1709 8.64258 91.0615 5.98828C90.5693 5.35547 90.0771 4.89844 89.585 4.61719C89.1279 4.37109 88.7939 4.25684 88.583 4.27441C87.458 4.41504 86.3506 5.30273 85.2607 6.9375C83.1514 10.1016 81.376 14.6191 79.9346 20.4902ZM128.028 22.4678L128.055 38.5254C128.055 39.0703 127.87 39.4834 127.501 39.7646C127.149 40.0459 126.763 40.1865 126.341 40.1865C125.901 40.1865 125.506 40.0459 125.154 39.7646C124.803 39.4834 124.627 39.0703 124.627 38.5254L124.548 2.85059C124.548 2.39355 124.724 1.99805 125.075 1.66406C125.427 1.3125 125.822 1.13672 126.262 1.13672C126.279 1.13672 126.297 1.13672 126.314 1.13672C132.748 1.34766 137.696 2.7627 141.159 5.38184C143.866 7.4209 145.22 9.81152 145.22 12.5537C145.22 15.0674 144.051 17.2383 141.713 19.0664C138.777 21.3516 134.717 22.4941 129.531 22.4941C129.039 22.4941 128.538 22.4854 128.028 22.4678ZM128.002 19.04C128.512 19.0576 129.004 19.0664 129.479 19.0664C133.908 19.0664 137.283 18.1699 139.604 16.377C141.062 15.252 141.792 13.9775 141.792 12.5537C141.792 10.9541 140.896 9.47754 139.103 8.12402C136.501 6.19043 132.792 5.03906 127.976 4.66992L128.002 19.04ZM152.471 40.002C152.031 40.002 151.636 39.8174 151.284 39.4482C150.933 39.0967 150.774 38.6836 150.81 38.209C150.897 36.4512 150.941 33.8232 150.941 30.3252C150.941 27.9346 150.915 25.1309 150.862 21.9141C150.827 18.6797 150.766 15.0322 150.678 10.9717L150.493 2.85059C150.476 2.41113 150.616 2.02441 150.915 1.69043C151.231 1.35645 151.583 1.16309 151.97 1.11035C155.556 0.635742 158.746 0.398438 161.541 0.398438C165.408 0.398438 168.52 0.855469 170.875 1.76953C175.533 3.58008 177.862 7.24512 177.862 12.7646C177.862 19.5674 173.573 23.6807 164.995 25.1045C164.503 25.1748 163.967 25.2451 163.387 25.3154C162.824 25.3857 162.209 25.4385 161.541 25.4736L180.552 36.7588C181.079 37.0752 181.343 37.5586 181.343 38.209C181.343 38.7363 181.079 39.2109 180.552 39.6328C180.042 40.0723 179.462 40.0986 178.812 39.7119L154.527 25.3154C154.51 25.2979 154.483 25.2803 154.448 25.2627C154.413 25.2275 154.378 25.2012 154.343 25.1836C154.36 27.1875 154.369 28.9805 154.369 30.5625C154.369 34.1133 154.325 36.7236 154.237 38.3936C154.202 38.8506 154.009 39.2285 153.657 39.5273C153.306 39.8438 152.91 40.002 152.471 40.002ZM154.316 22.4941C154.633 22.248 155.002 22.125 155.424 22.125C156.092 22.1426 156.742 22.1514 157.375 22.1514C163.756 22.1514 168.247 21.3076 170.849 19.6201C173.239 18.0732 174.435 15.7793 174.435 12.7383C174.435 10.6289 174.03 8.95898 173.222 7.72852C171.464 5.0918 167.553 3.77344 161.488 3.77344C159.273 3.77344 156.76 3.94922 153.947 4.30078L154.105 10.9189C154.158 13.0986 154.202 15.1553 154.237 17.0889C154.272 19.0049 154.299 20.8066 154.316 22.4941ZM226.246 21.123C226.246 23.7773 225.728 26.2031 224.69 28.4004C223.671 30.5801 222.247 32.4609 220.419 34.043C218.608 35.6074 216.508 36.8203 214.117 37.6816C211.727 38.543 209.169 38.9736 206.444 38.9736C205.196 38.9736 203.939 38.8682 202.674 38.6572C201.408 38.4463 200.151 38.1123 198.903 37.6553C196.144 36.6533 193.691 35.0537 191.547 32.8564C189.402 30.6592 187.952 27.9697 187.196 24.7881C186.845 23.3291 186.669 21.8965 186.669 20.4902C186.669 18.5039 187.003 16.6143 187.671 14.8213C188.339 13.0107 189.209 11.376 190.281 9.91699C191.354 8.44043 192.505 7.20117 193.735 6.19922C197.251 3.31641 201.294 1.78711 205.864 1.61133C206.058 1.59375 206.225 1.61133 206.365 1.66406C206.523 1.69922 206.664 1.72559 206.787 1.74316C210.127 1.91895 213.142 2.78906 215.831 4.35352C218.521 5.90039 220.674 7.71973 222.291 9.81152C224.928 13.2393 226.246 17.0098 226.246 21.123ZM206.049 5.03906C202.217 5.19727 198.78 6.51562 195.739 8.99414C192.698 11.4727 190.879 14.6279 190.281 18.46C190.176 19.1631 190.123 19.875 190.123 20.5957C190.123 22.2305 190.369 23.7686 190.861 25.21C191.354 26.6338 191.951 27.8291 192.654 28.7959C194.061 30.7295 195.924 32.3467 198.244 33.6475C200.582 34.9307 203.28 35.5723 206.339 35.5723C207.429 35.5723 208.545 35.4756 209.688 35.2822C212.061 34.8955 214.24 34.0869 216.227 32.8564C218.213 31.6084 219.812 30.0088 221.025 28.0576C222.238 26.0889 222.845 23.8301 222.845 21.2812C222.845 19.084 222.423 17.0801 221.579 15.2695C220.753 13.4414 219.654 11.8418 218.283 10.4707C216.93 9.09961 215.453 8.00098 213.854 7.1748C211.516 5.96191 209.099 5.29395 206.603 5.1709C206.444 5.1709 206.26 5.12695 206.049 5.03906ZM46.5273 59.7676C47.0371 59.7676 47.4414 59.9609 47.7402 60.3477C48.0391 60.7344 48.1885 61.1211 48.1885 61.5078L48.4258 97.6836C48.4258 98.2285 48.25 98.6416 47.8984 98.9229C47.5469 99.2041 47.1514 99.3447 46.7119 99.3447C46.29 99.3447 45.8945 99.2041 45.5254 98.9229C45.1738 98.6416 44.998 98.2285 44.998 97.6836L44.8135 67.8887C41.5439 73.3379 39.1357 77.0293 37.5889 78.9629C36.0068 80.9316 34.7764 82.1445 33.8975 82.6016C33.5107 82.8125 33.0977 82.918 32.6582 82.918C31.7793 82.918 30.8037 82.4346 29.7314 81.4678C28.4658 80.29 27.2002 78.9453 25.9346 77.4336C24.6689 75.9219 23.4473 74.3838 22.2695 72.8193C21.1094 71.2549 20.0107 69.7959 18.9736 68.4424L17.708 66.7021L18.0771 97.2881C18.0771 97.8506 17.8926 98.2725 17.5234 98.5537C17.1719 98.835 16.7764 98.9756 16.3369 98.9756C15.915 98.9756 15.5283 98.835 15.1768 98.5537C14.8252 98.29 14.6494 97.8857 14.6494 97.3408L14.2012 61.4287C14.2012 60.9014 14.377 60.4883 14.7285 60.1895C15.0801 59.873 15.4844 59.7148 15.9414 59.7148C16.4688 59.7148 16.9082 59.917 17.2598 60.3213L21.7422 66.4121C27.209 73.6367 30.8564 77.9258 32.6846 79.2793C33.9502 78.2422 35.4355 76.3965 37.1406 73.7422C38.6172 71.4395 39.918 69.3564 41.043 67.4932C42.1855 65.6123 43.1523 63.96 43.9434 62.5361L44.9717 60.6641C45.0947 60.4355 45.2969 60.2334 45.5781 60.0576C45.877 59.8643 46.1934 59.7676 46.5273 59.7676ZM55.3604 99.0283C54.9561 99.0283 54.5693 98.8525 54.2002 98.501C53.8311 98.167 53.6641 97.7891 53.6992 97.3672C54.332 88.877 55.6943 81.2393 57.7861 74.4541C59.8779 67.7041 62.374 63.2305 65.2744 61.0332C66.4697 60.1367 67.6299 59.6885 68.7549 59.6885C71.9541 59.6885 74.9512 63.2217 77.7461 70.2881C80.1895 76.4932 82.3164 84.6318 84.127 94.7041L84.5488 97.0244C84.5664 97.1299 84.5752 97.2266 84.5752 97.3145C84.5752 97.8418 84.3818 98.2461 83.9951 98.5273C83.626 98.8262 83.2217 98.9756 82.7822 98.9756C82.4131 98.9756 82.0703 98.8613 81.7539 98.6328C81.4375 98.4219 81.2354 98.0791 81.1475 97.6045L80.752 95.3105C80.3477 93.043 79.9258 90.8809 79.4863 88.8242C79.0469 86.75 78.5898 84.7812 78.1152 82.918H59.21C58.1729 88.0508 57.4785 92.9023 57.127 97.4727C57.0918 97.9297 56.8984 98.2988 56.5469 98.5801C56.1953 98.8789 55.7998 99.0283 55.3604 99.0283ZM59.9746 79.4902H77.2188C75.25 72.4766 73.2109 67.6426 71.1016 64.9883C70.6094 64.3555 70.1172 63.8984 69.625 63.6172C69.168 63.3711 68.834 63.2568 68.623 63.2744C67.498 63.415 66.3906 64.3027 65.3008 65.9375C63.1914 69.1016 61.416 73.6191 59.9746 79.4902ZM116.479 96.6816C116.479 97.1914 116.295 97.5957 115.926 97.8945C115.574 98.1758 115.188 98.3164 114.766 98.3164C114.432 98.3164 114.106 98.2197 113.79 98.0264C113.491 97.833 113.289 97.543 113.184 97.1562C112.867 96.084 111.443 94.335 108.912 91.9092C106.908 89.9756 104.641 87.9629 102.109 85.8711C99.5781 83.7793 96.7656 81.5996 93.6719 79.332C93.5488 84.3594 93.4521 88.3584 93.3818 91.3291C93.3115 94.2822 93.2676 96.2158 93.25 97.1299C93.25 97.6748 93.0654 98.0791 92.6963 98.3428C92.3447 98.624 91.958 98.7646 91.5361 98.7646C91.0967 98.7646 90.7012 98.624 90.3496 98.3428C89.998 98.0791 89.8223 97.6748 89.8223 97.1299C89.8223 95.7412 89.9014 92.1025 90.0596 86.2139C90.2178 80.3076 90.4199 72.1162 90.666 61.6396C90.6836 61.1826 90.8682 60.7959 91.2197 60.4795C91.5889 60.1455 91.9932 59.9785 92.4326 59.9785C92.8721 59.9785 93.2588 60.1543 93.5928 60.5059C93.9268 60.8398 94.0938 61.2441 94.0938 61.7188C94.0234 64.3203 93.9619 66.7988 93.9092 69.1543C93.8564 71.4922 93.8037 73.6807 93.751 75.7197L94.7266 74.9551C97.1172 73.127 99.2441 71.4395 101.107 69.8926C102.988 68.3281 104.614 66.9131 105.985 65.6475C108.763 63.0811 110.327 61.5254 110.679 60.9805C110.872 60.6816 111.109 60.4268 111.391 60.2158C111.672 59.9873 111.988 59.873 112.34 59.873C112.797 59.873 113.184 60.0576 113.5 60.4268C113.834 60.7783 114.001 61.1738 114.001 61.6133C114.001 61.9473 113.913 62.2549 113.737 62.5361C112.419 64.5928 108.13 68.5654 100.87 74.4541C99.3408 75.6846 98.0488 76.7129 96.9941 77.5391C99.8418 79.666 102.479 81.7402 104.904 83.7617C107.33 85.7656 109.527 87.7256 111.496 89.6416C114.818 92.8584 116.479 95.2051 116.479 96.6816ZM132.115 63.6436C131.008 63.6436 129.848 63.6611 128.635 63.6963C127.422 63.7139 126.402 63.749 125.576 63.8018C125.682 68.8643 125.734 73.417 125.734 77.46L144.851 77.5918C145.396 77.5918 145.8 77.7764 146.063 78.1455C146.345 78.4971 146.485 78.8838 146.485 79.3057C146.485 79.7451 146.345 80.1406 146.063 80.4922C145.8 80.8438 145.387 81.0195 144.824 81.0195L125.708 80.8877C125.69 83.2256 125.655 85.3262 125.603 87.1895C125.55 89.0527 125.488 90.6787 125.418 92.0674L125.286 94.5986C131.052 94.5811 135.754 94.5371 139.393 94.4668C143.049 94.3789 145.659 94.2734 147.224 94.1504C147.751 94.0977 148.155 94.2734 148.437 94.6777C148.718 95.0645 148.858 95.4688 148.858 95.8906C148.858 96.2949 148.735 96.6729 148.489 97.0244C148.243 97.3584 147.865 97.543 147.355 97.5781C145.633 97.7363 142.776 97.8506 138.786 97.9209C134.813 97.9912 129.716 98.0264 123.493 98.0264C123.054 98.0264 122.658 97.8506 122.307 97.499C121.955 97.1475 121.779 96.7256 121.779 96.2334C121.779 96.04 121.797 95.4424 121.832 94.4404C121.867 93.4209 121.911 92.1553 121.964 90.6436C122.017 89.1318 122.069 87.5322 122.122 85.8447C122.175 84.1396 122.219 82.4961 122.254 80.9141C122.289 79.3145 122.307 77.9258 122.307 76.748C122.307 74.5508 122.271 72.2393 122.201 69.8135C122.148 67.3701 122.122 64.8213 122.122 62.167C122.122 61.7275 122.28 61.3408 122.597 61.0068C122.931 60.6729 123.309 60.4971 123.73 60.4795L125.629 60.3477C127.141 60.2598 128.705 60.207 130.322 60.1895C131.939 60.1719 133.609 60.1895 135.332 60.2422C142.1 60.4531 146.898 61.1914 149.729 62.457C150.396 62.7559 150.722 63.3096 150.704 64.1182C150.704 64.5576 150.555 64.9443 150.256 65.2783C149.975 65.5947 149.588 65.7529 149.096 65.7529C148.85 65.7529 148.595 65.6914 148.331 65.5684C145.413 64.2852 140.008 63.6436 132.115 63.6436ZM170.849 95.0732C173.292 95.0732 175.322 94.5811 176.939 93.5967C178.557 92.5947 179.84 91.2148 180.789 89.457C181.756 87.6816 182.441 85.6338 182.846 83.3135C183.25 80.9932 183.452 78.5059 183.452 75.8516C183.452 71.8086 182.969 67.0361 182.002 61.5342C181.984 61.4287 181.976 61.3232 181.976 61.2178C181.976 60.6904 182.16 60.2861 182.529 60.0049C182.916 59.7061 183.329 59.5566 183.769 59.5566C184.138 59.5566 184.472 59.6709 184.771 59.8994C185.087 60.1104 185.289 60.4531 185.377 60.9277C186.361 66.6055 186.854 71.6504 186.854 76.0625C186.854 85.3789 184.639 91.8652 180.209 95.5215C179.049 96.4883 177.66 97.2354 176.043 97.7627C174.426 98.29 172.712 98.5537 170.901 98.5537C167.808 98.5537 165.355 97.9648 163.545 96.7871C161.734 95.6094 160.346 93.9834 159.379 91.9092C158.43 89.8174 157.691 87.4355 157.164 84.7637C156.391 80.7559 156.004 75.0957 156.004 67.7832C156.004 65.832 156.03 63.7754 156.083 61.6133C156.101 61.1562 156.285 60.7695 156.637 60.4531C157.006 60.1191 157.41 59.9521 157.85 59.9521C158.289 59.9521 158.676 60.1279 159.01 60.4795C159.344 60.8311 159.511 61.2441 159.511 61.7188C159.458 64.0039 159.432 66.1484 159.432 68.1523C159.432 75.1133 159.792 80.4219 160.513 84.0781C161.462 88.8594 162.798 91.9092 164.521 93.2275C166.138 94.458 168.247 95.0732 170.849 95.0732ZM195.607 81.4678L195.634 97.5254C195.634 98.0703 195.449 98.4834 195.08 98.7646C194.729 99.0459 194.342 99.1865 193.92 99.1865C193.48 99.1865 193.085 99.0459 192.733 98.7646C192.382 98.4834 192.206 98.0703 192.206 97.5254L192.127 61.8506C192.127 61.3936 192.303 60.998 192.654 60.6641C193.006 60.3125 193.401 60.1367 193.841 60.1367C193.858 60.1367 193.876 60.1367 193.894 60.1367C200.327 60.3477 205.275 61.7627 208.738 64.3818C211.445 66.4209 212.799 68.8115 212.799 71.5537C212.799 74.0674 211.63 76.2383 209.292 78.0664C206.356 80.3516 202.296 81.4941 197.11 81.4941C196.618 81.4941 196.117 81.4854 195.607 81.4678ZM195.581 78.04C196.091 78.0576 196.583 78.0664 197.058 78.0664C201.487 78.0664 204.862 77.1699 207.183 75.377C208.642 74.252 209.371 72.9775 209.371 71.5537C209.371 69.9541 208.475 68.4775 206.682 67.124C204.08 65.1904 200.371 64.0391 195.555 63.6699L195.581 78.04Z" fill="white"/>
</svg>
