<svg width="159" height="75" viewBox="0 0 159 75" fill="none" xmlns="http://www.w3.org/2000/svg">
<g filter="url(#filter0_d_6_2)">
<path d="M22.0898 25.1211C22.0898 25.4609 21.9668 25.7305 21.7207 25.9297C21.4863 26.1172 21.2285 26.2109 20.9473 26.2109C20.7246 26.2109 20.5078 26.1465 20.2969 26.0176C20.0977 25.8887 19.9629 25.6953 19.8926 25.4375C19.6816 24.7227 18.7324 23.5566 17.0449 21.9395C15.709 20.6504 14.1973 19.3086 12.5098 17.9141C10.8223 16.5195 8.94727 15.0664 6.88477 13.5547C6.80273 16.9062 6.73828 19.5723 6.69141 21.5527C6.64453 23.5215 6.61523 24.8105 6.60352 25.4199C6.60352 25.7832 6.48047 26.0527 6.23438 26.2285C6 26.416 5.74219 26.5098 5.46094 26.5098C5.16797 26.5098 4.9043 26.416 4.66992 26.2285C4.43555 26.0527 4.31836 25.7832 4.31836 25.4199C4.31836 24.4941 4.37109 22.0684 4.47656 18.1426C4.58203 14.2051 4.7168 8.74414 4.88086 1.75977C4.89258 1.45508 5.01562 1.19727 5.25 0.986328C5.49609 0.763672 5.76562 0.652344 6.05859 0.652344C6.35156 0.652344 6.60938 0.769531 6.83203 1.00391C7.05469 1.22656 7.16602 1.49609 7.16602 1.8125C7.11914 3.54688 7.07812 5.19922 7.04297 6.76953C7.00781 8.32812 6.97266 9.78711 6.9375 11.1465L7.58789 10.6367C9.18164 9.41797 10.5996 8.29297 11.8418 7.26172C13.0957 6.21875 14.1797 5.27539 15.0938 4.43164C16.9453 2.7207 17.9883 1.68359 18.2227 1.32031C18.3516 1.12109 18.5098 0.951172 18.6973 0.810547C18.8848 0.658203 19.0957 0.582031 19.3301 0.582031C19.6348 0.582031 19.8926 0.705078 20.1035 0.951172C20.3262 1.18555 20.4375 1.44922 20.4375 1.74219C20.4375 1.96484 20.3789 2.16992 20.2617 2.35742C19.3828 3.72852 16.5234 6.37695 11.6836 10.3027C10.6641 11.123 9.80273 11.8086 9.09961 12.3594C10.998 13.7773 12.7559 15.1602 14.373 16.5078C15.9902 17.8438 17.4551 19.1504 18.7676 20.4277C20.9824 22.5723 22.0898 24.1367 22.0898 25.1211ZM26.8008 0.40625C27.082 0.40625 27.334 0.523438 27.5566 0.757812C27.791 0.992187 27.9082 1.25586 27.9082 1.54883L28.1367 25.332C28.1367 25.707 28.0137 25.9883 27.7676 26.1758C27.5332 26.3633 27.2695 26.457 26.9766 26.457C26.6953 26.457 26.4375 26.3633 26.2031 26.1758C25.9688 26 25.8516 25.7305 25.8516 25.3672L25.623 1.56641C25.623 1.26172 25.7402 0.992187 25.9746 0.757812C26.2207 0.523438 26.4961 0.40625 26.8008 0.40625ZM49.4062 25.1211C49.4062 25.4609 49.2832 25.7305 49.0371 25.9297C48.8027 26.1172 48.5449 26.2109 48.2637 26.2109C48.041 26.2109 47.8242 26.1465 47.6133 26.0176C47.4141 25.8887 47.2793 25.6953 47.209 25.4375C46.998 24.7227 46.0488 23.5566 44.3613 21.9395C43.0254 20.6504 41.5137 19.3086 39.8262 17.9141C38.1387 16.5195 36.2637 15.0664 34.2012 13.5547C34.1191 16.9062 34.0547 19.5723 34.0078 21.5527C33.9609 23.5215 33.9316 24.8105 33.9199 25.4199C33.9199 25.7832 33.7969 26.0527 33.5508 26.2285C33.3164 26.416 33.0586 26.5098 32.7773 26.5098C32.4844 26.5098 32.2207 26.416 31.9863 26.2285C31.752 26.0527 31.6348 25.7832 31.6348 25.4199C31.6348 24.4941 31.6875 22.0684 31.793 18.1426C31.8984 14.2051 32.0332 8.74414 32.1973 1.75977C32.209 1.45508 32.332 1.19727 32.5664 0.986328C32.8125 0.763672 33.082 0.652344 33.375 0.652344C33.668 0.652344 33.9258 0.769531 34.1484 1.00391C34.3711 1.22656 34.4824 1.49609 34.4824 1.8125C34.4355 3.54688 34.3945 5.19922 34.3594 6.76953C34.3242 8.32812 34.2891 9.78711 34.2539 11.1465L34.9043 10.6367C36.498 9.41797 37.916 8.29297 39.1582 7.26172C40.4121 6.21875 41.4961 5.27539 42.4102 4.43164C44.2617 2.7207 45.3047 1.68359 45.5391 1.32031C45.668 1.12109 45.8262 0.951172 46.0137 0.810547C46.2012 0.658203 46.4121 0.582031 46.6465 0.582031C46.9512 0.582031 47.209 0.705078 47.4199 0.951172C47.6426 1.18555 47.7539 1.44922 47.7539 1.74219C47.7539 1.96484 47.6953 2.16992 47.5781 2.35742C46.6992 3.72852 43.8398 6.37695 39 10.3027C37.9805 11.123 37.1191 11.8086 36.416 12.3594C38.3145 13.7773 40.0723 15.1602 41.6895 16.5078C43.3066 17.8438 44.7715 19.1504 46.084 20.4277C48.2988 22.5723 49.4062 24.1367 49.4062 25.1211ZM54.0469 26.6855C53.7773 26.6855 53.5195 26.5684 53.2734 26.334C53.0273 26.1113 52.916 25.8594 52.9395 25.5781C53.3613 19.918 54.2695 14.8262 55.6641 10.3027C57.0586 5.80273 58.7227 2.82031 60.6562 1.35547C61.4531 0.757812 62.2266 0.458984 62.9766 0.458984C65.1094 0.458984 67.1074 2.81445 68.9707 7.52539C70.5996 11.6621 72.0176 17.0879 73.2246 23.8027L73.5059 25.3496C73.5176 25.4199 73.5234 25.4844 73.5234 25.543C73.5234 25.8945 73.3945 26.1641 73.1367 26.3516C72.8906 26.5508 72.6211 26.6504 72.3281 26.6504C72.082 26.6504 71.8535 26.5742 71.6426 26.4219C71.4316 26.2812 71.2969 26.0527 71.2383 25.7363L70.9746 24.207C70.7051 22.6953 70.4238 21.2539 70.1309 19.8828C69.8379 18.5 69.5332 17.1875 69.2168 15.9453H56.6133C55.9219 19.3672 55.459 22.6016 55.2246 25.6484C55.2012 25.9531 55.0723 26.1992 54.8379 26.3867C54.6035 26.5859 54.3398 26.6855 54.0469 26.6855ZM57.123 13.6602H68.6191C67.3066 8.98438 65.9473 5.76172 64.541 3.99219C64.2129 3.57031 63.8848 3.26563 63.5566 3.07812C63.252 2.91406 63.0293 2.83789 62.8887 2.84961C62.1387 2.94336 61.4004 3.53516 60.6738 4.625C59.2676 6.73438 58.084 9.74609 57.123 13.6602ZM89.1855 14.9785L89.2031 25.6836C89.2031 26.0469 89.0801 26.3223 88.834 26.5098C88.5996 26.6973 88.3418 26.791 88.0605 26.791C87.7676 26.791 87.5039 26.6973 87.2695 26.5098C87.0352 26.3223 86.918 26.0469 86.918 25.6836L86.8652 1.90039C86.8652 1.5957 86.9824 1.33203 87.2168 1.10938C87.4512 0.875 87.7148 0.757812 88.0078 0.757812C88.0195 0.757812 88.0312 0.757812 88.043 0.757812C92.332 0.898438 95.6309 1.8418 97.9395 3.58789C99.7441 4.94727 100.646 6.54102 100.646 8.36914C100.646 10.0449 99.8672 11.4922 98.3086 12.7109C96.3516 14.2344 93.6445 14.9961 90.1875 14.9961C89.8594 14.9961 89.5254 14.9902 89.1855 14.9785ZM89.168 12.6934C89.5078 12.7051 89.8359 12.7109 90.1523 12.7109C93.1055 12.7109 95.3555 12.1133 96.9023 10.918C97.875 10.168 98.3613 9.31836 98.3613 8.36914C98.3613 7.30273 97.7637 6.31836 96.5684 5.41602C94.834 4.12695 92.3613 3.35938 89.1504 3.11328L89.168 12.6934ZM105.48 26.668C105.188 26.668 104.924 26.5449 104.689 26.2988C104.455 26.0645 104.35 25.7891 104.373 25.4727C104.432 24.3008 104.461 22.5488 104.461 20.2168C104.461 18.623 104.443 16.7539 104.408 14.6094C104.385 12.4531 104.344 10.0215 104.285 7.31445L104.162 1.90039C104.15 1.60742 104.244 1.34961 104.443 1.12695C104.654 0.904297 104.889 0.775391 105.146 0.740234C107.537 0.423828 109.664 0.265625 111.527 0.265625C114.105 0.265625 116.18 0.570312 117.75 1.17969C120.855 2.38672 122.408 4.83008 122.408 8.50977C122.408 13.0449 119.549 15.7871 113.83 16.7363C113.502 16.7832 113.145 16.8301 112.758 16.877C112.383 16.9238 111.973 16.959 111.527 16.9824L124.201 24.5059C124.553 24.7168 124.729 25.0391 124.729 25.4727C124.729 25.8242 124.553 26.1406 124.201 26.4219C123.861 26.7148 123.475 26.7324 123.041 26.4746L106.852 16.877C106.84 16.8652 106.822 16.8535 106.799 16.8418C106.775 16.8184 106.752 16.8008 106.729 16.7891C106.74 18.125 106.746 19.3203 106.746 20.375C106.746 22.7422 106.717 24.4824 106.658 25.5957C106.635 25.9004 106.506 26.1523 106.271 26.3516C106.037 26.5625 105.773 26.668 105.48 26.668ZM106.711 14.9961C106.922 14.832 107.168 14.75 107.449 14.75C107.895 14.7617 108.328 14.7676 108.75 14.7676C113.004 14.7676 115.998 14.2051 117.732 13.0801C119.326 12.0488 120.123 10.5195 120.123 8.49219C120.123 7.08594 119.854 5.97266 119.314 5.15234C118.143 3.39453 115.535 2.51562 111.492 2.51562C110.016 2.51562 108.34 2.63281 106.465 2.86719L106.57 7.2793C106.605 8.73242 106.635 10.1035 106.658 11.3926C106.682 12.6699 106.699 13.8711 106.711 14.9961ZM154.664 14.082C154.664 15.8516 154.318 17.4688 153.627 18.9336C152.947 20.3867 151.998 21.6406 150.779 22.6953C149.572 23.7383 148.172 24.5469 146.578 25.1211C144.984 25.6953 143.279 25.9824 141.463 25.9824C140.631 25.9824 139.793 25.9121 138.949 25.7715C138.105 25.6309 137.268 25.4082 136.436 25.1035C134.596 24.4355 132.961 23.3691 131.531 21.9043C130.102 20.4395 129.135 18.6465 128.631 16.5254C128.396 15.5527 128.279 14.5977 128.279 13.6602C128.279 12.3359 128.502 11.0762 128.947 9.88086C129.393 8.67383 129.973 7.58398 130.688 6.61133C131.402 5.62695 132.17 4.80078 132.99 4.13281C135.334 2.21094 138.029 1.19141 141.076 1.07422C141.205 1.0625 141.316 1.07422 141.41 1.10938C141.516 1.13281 141.609 1.15039 141.691 1.16211C143.918 1.2793 145.928 1.85938 147.721 2.90234C149.514 3.93359 150.949 5.14648 152.027 6.54102C153.785 8.82617 154.664 11.3398 154.664 14.082ZM141.199 3.35938C138.645 3.46484 136.354 4.34375 134.326 5.99609C132.299 7.64844 131.086 9.75195 130.688 12.3066C130.617 12.7754 130.582 13.25 130.582 13.7305C130.582 14.8203 130.746 15.8457 131.074 16.8066C131.402 17.7559 131.801 18.5527 132.27 19.1973C133.207 20.4863 134.449 21.5645 135.996 22.4316C137.555 23.2871 139.354 23.7148 141.393 23.7148C142.119 23.7148 142.863 23.6504 143.625 23.5215C145.207 23.2637 146.66 22.7246 147.984 21.9043C149.309 21.0723 150.375 20.0059 151.184 18.7051C151.992 17.3926 152.396 15.8867 152.396 14.1875C152.396 12.7227 152.115 11.3867 151.553 10.1797C151.002 8.96094 150.27 7.89453 149.355 6.98047C148.453 6.06641 147.469 5.33398 146.402 4.7832C144.844 3.97461 143.232 3.5293 141.568 3.44727C141.463 3.44727 141.34 3.41797 141.199 3.35938ZM34.8516 40.5117C35.1914 40.5117 35.4609 40.6406 35.6602 40.8984C35.8594 41.1562 35.959 41.4141 35.959 41.6719L36.1172 65.7891C36.1172 66.1523 36 66.4277 35.7656 66.6152C35.5312 66.8027 35.2676 66.8965 34.9746 66.8965C34.6934 66.8965 34.4297 66.8027 34.1836 66.6152C33.9492 66.4277 33.832 66.1523 33.832 65.7891L33.709 45.9258C31.5293 49.5586 29.9238 52.0195 28.8926 53.3086C27.8379 54.6211 27.0176 55.4297 26.4316 55.7344C26.1738 55.875 25.8984 55.9453 25.6055 55.9453C25.0195 55.9453 24.3691 55.623 23.6543 54.9785C22.8105 54.1934 21.9668 53.2969 21.123 52.2891C20.2793 51.2812 19.4648 50.2559 18.6797 49.2129C17.9062 48.1699 17.1738 47.1973 16.4824 46.2949L15.6387 45.1348L15.8848 65.5254C15.8848 65.9004 15.7617 66.1816 15.5156 66.3691C15.2812 66.5566 15.0176 66.6504 14.7246 66.6504C14.4434 66.6504 14.1855 66.5566 13.9512 66.3691C13.7168 66.1934 13.5996 65.9238 13.5996 65.5605L13.3008 41.6191C13.3008 41.2676 13.418 40.9922 13.6523 40.793C13.8867 40.582 14.1562 40.4766 14.4609 40.4766C14.8125 40.4766 15.1055 40.6113 15.3398 40.8809L18.3281 44.9414C21.9727 49.7578 24.4043 52.6172 25.623 53.5195C26.4668 52.8281 27.457 51.5977 28.5938 49.8281C29.5781 48.293 30.4453 46.9043 31.1953 45.6621C31.957 44.4082 32.6016 43.3066 33.1289 42.3574L33.8145 41.1094C33.8965 40.957 34.0312 40.8223 34.2188 40.7051C34.418 40.5762 34.6289 40.5117 34.8516 40.5117ZM40.7402 66.6855C40.4707 66.6855 40.2129 66.5684 39.9668 66.334C39.7207 66.1113 39.6094 65.8594 39.6328 65.5781C40.0547 59.918 40.9629 54.8262 42.3574 50.3027C43.752 45.8027 45.416 42.8203 47.3496 41.3555C48.1465 40.7578 48.9199 40.459 49.6699 40.459C51.8027 40.459 53.8008 42.8145 55.6641 47.5254C57.293 51.6621 58.7109 57.0879 59.918 63.8027L60.1992 65.3496C60.2109 65.4199 60.2168 65.4844 60.2168 65.543C60.2168 65.8945 60.0879 66.1641 59.8301 66.3516C59.584 66.5508 59.3145 66.6504 59.0215 66.6504C58.7754 66.6504 58.5469 66.5742 58.3359 66.4219C58.125 66.2812 57.9902 66.0527 57.9316 65.7363L57.668 64.207C57.3984 62.6953 57.1172 61.2539 56.8242 59.8828C56.5312 58.5 56.2266 57.1875 55.9102 55.9453H43.3066C42.6152 59.3672 42.1523 62.6016 41.918 65.6484C41.8945 65.9531 41.7656 66.1992 41.5312 66.3867C41.2969 66.5859 41.0332 66.6855 40.7402 66.6855ZM43.8164 53.6602H55.3125C54 48.9844 52.6406 45.7617 51.2344 43.9922C50.9062 43.5703 50.5781 43.2656 50.25 43.0781C49.9453 42.9141 49.7227 42.8379 49.582 42.8496C48.832 42.9434 48.0938 43.5352 47.3672 44.625C45.9609 46.7344 44.7773 49.7461 43.8164 53.6602ZM81.4863 65.1211C81.4863 65.4609 81.3633 65.7305 81.1172 65.9297C80.8828 66.1172 80.625 66.2109 80.3438 66.2109C80.1211 66.2109 79.9043 66.1465 79.6934 66.0176C79.4941 65.8887 79.3594 65.6953 79.2891 65.4375C79.0781 64.7227 78.1289 63.5566 76.4414 61.9395C75.1055 60.6504 73.5938 59.3086 71.9062 57.9141C70.2188 56.5195 68.3438 55.0664 66.2812 53.5547C66.1992 56.9062 66.1348 59.5723 66.0879 61.5527C66.041 63.5215 66.0117 64.8105 66 65.4199C66 65.7832 65.877 66.0527 65.6309 66.2285C65.3965 66.416 65.1387 66.5098 64.8574 66.5098C64.5645 66.5098 64.3008 66.416 64.0664 66.2285C63.832 66.0527 63.7148 65.7832 63.7148 65.4199C63.7148 64.4941 63.7676 62.0684 63.873 58.1426C63.9785 54.2051 64.1133 48.7441 64.2773 41.7598C64.2891 41.4551 64.4121 41.1973 64.6465 40.9863C64.8926 40.7637 65.1621 40.6523 65.4551 40.6523C65.748 40.6523 66.0059 40.7695 66.2285 41.0039C66.4512 41.2266 66.5625 41.4961 66.5625 41.8125C66.5156 43.5469 66.4746 45.1992 66.4395 46.7695C66.4043 48.3281 66.3691 49.7871 66.334 51.1465L66.9844 50.6367C68.5781 49.418 69.9961 48.293 71.2383 47.2617C72.4922 46.2188 73.5762 45.2754 74.4902 44.4316C76.3418 42.7207 77.3848 41.6836 77.6191 41.3203C77.748 41.1211 77.9062 40.9512 78.0938 40.8105C78.2812 40.6582 78.4922 40.582 78.7266 40.582C79.0312 40.582 79.2891 40.7051 79.5 40.9512C79.7227 41.1855 79.834 41.4492 79.834 41.7422C79.834 41.9648 79.7754 42.1699 79.6582 42.3574C78.7793 43.7285 75.9199 46.377 71.0801 50.3027C70.0605 51.123 69.1992 51.8086 68.4961 52.3594C70.3945 53.7773 72.1523 55.1602 73.7695 56.5078C75.3867 57.8438 76.8516 59.1504 78.1641 60.4277C80.3789 62.5723 81.4863 64.1367 81.4863 65.1211ZM91.9102 43.0957C91.1719 43.0957 90.3984 43.1074 89.5898 43.1309C88.7812 43.1426 88.1016 43.166 87.5508 43.2012C87.6211 46.5762 87.6562 49.6113 87.6562 52.3066L100.4 52.3945C100.764 52.3945 101.033 52.5176 101.209 52.7637C101.396 52.998 101.49 53.2559 101.49 53.5371C101.49 53.8301 101.396 54.0938 101.209 54.3281C101.033 54.5625 100.758 54.6797 100.383 54.6797L87.6387 54.5918C87.627 56.1504 87.6035 57.5508 87.5684 58.793C87.5332 60.0352 87.4922 61.1191 87.4453 62.0449L87.3574 63.7324C91.2012 63.7207 94.3359 63.6914 96.7617 63.6445C99.1992 63.5859 100.939 63.5156 101.982 63.4336C102.334 63.3984 102.604 63.5156 102.791 63.7852C102.979 64.043 103.072 64.3125 103.072 64.5938C103.072 64.8633 102.99 65.1152 102.826 65.3496C102.662 65.5723 102.41 65.6953 102.07 65.7188C100.922 65.8242 99.0176 65.9004 96.3574 65.9473C93.709 65.9941 90.3105 66.0176 86.1621 66.0176C85.8691 66.0176 85.6055 65.9004 85.3711 65.666C85.1367 65.4316 85.0195 65.1504 85.0195 64.8223C85.0195 64.6934 85.0312 64.2949 85.0547 63.627C85.0781 62.9473 85.1074 62.1035 85.1426 61.0957C85.1777 60.0879 85.2129 59.0215 85.248 57.8965C85.2832 56.7598 85.3125 55.6641 85.3359 54.6094C85.3594 53.543 85.3711 52.6172 85.3711 51.832C85.3711 50.3672 85.3477 48.8262 85.3008 47.209C85.2656 45.5801 85.248 43.8809 85.248 42.1113C85.248 41.8184 85.3535 41.5605 85.5645 41.3379C85.7871 41.1152 86.0391 40.998 86.3203 40.9863L87.5859 40.8984C88.5938 40.8398 89.6367 40.8047 90.7148 40.793C91.793 40.7812 92.9062 40.793 94.0547 40.8281C98.5664 40.9688 101.766 41.4609 103.652 42.3047C104.098 42.5039 104.314 42.873 104.303 43.4121C104.303 43.7051 104.203 43.9629 104.004 44.1855C103.816 44.3965 103.559 44.502 103.23 44.502C103.066 44.502 102.896 44.4609 102.721 44.3789C100.775 43.5234 97.1719 43.0957 91.9102 43.0957ZM117.732 64.0488C119.361 64.0488 120.715 63.7207 121.793 63.0645C122.871 62.3965 123.727 61.4766 124.359 60.3047C125.004 59.1211 125.461 57.7559 125.73 56.209C126 54.6621 126.135 53.0039 126.135 51.2344C126.135 48.5391 125.812 45.3574 125.168 41.6895C125.156 41.6191 125.15 41.5488 125.15 41.4785C125.15 41.127 125.273 40.8574 125.52 40.6699C125.777 40.4707 126.053 40.3711 126.346 40.3711C126.592 40.3711 126.814 40.4473 127.014 40.5996C127.225 40.7402 127.359 40.9688 127.418 41.2852C128.074 45.0703 128.402 48.4336 128.402 51.375C128.402 57.5859 126.926 61.9102 123.973 64.3477C123.199 64.9922 122.273 65.4902 121.195 65.8418C120.117 66.1934 118.975 66.3691 117.768 66.3691C115.705 66.3691 114.07 65.9766 112.863 65.1914C111.656 64.4062 110.73 63.3223 110.086 61.9395C109.453 60.5449 108.961 58.957 108.609 57.1758C108.094 54.5039 107.836 50.7305 107.836 45.8555C107.836 44.5547 107.854 43.1836 107.889 41.7422C107.9 41.4375 108.023 41.1797 108.258 40.9688C108.504 40.7461 108.773 40.6348 109.066 40.6348C109.359 40.6348 109.617 40.752 109.84 40.9863C110.062 41.2207 110.174 41.4961 110.174 41.8125C110.139 43.3359 110.121 44.7656 110.121 46.1016C110.121 50.7422 110.361 54.2812 110.842 56.7188C111.475 59.9062 112.365 61.9395 113.514 62.8184C114.592 63.6387 115.998 64.0488 117.732 64.0488ZM134.238 54.9785L134.256 65.6836C134.256 66.0469 134.133 66.3223 133.887 66.5098C133.652 66.6973 133.395 66.791 133.113 66.791C132.82 66.791 132.557 66.6973 132.322 66.5098C132.088 66.3223 131.971 66.0469 131.971 65.6836L131.918 41.9004C131.918 41.5957 132.035 41.332 132.27 41.1094C132.504 40.875 132.768 40.7578 133.061 40.7578C133.072 40.7578 133.084 40.7578 133.096 40.7578C137.385 40.8984 140.684 41.8418 142.992 43.5879C144.797 44.9473 145.699 46.541 145.699 48.3691C145.699 50.0449 144.92 51.4922 143.361 52.7109C141.404 54.2344 138.697 54.9961 135.24 54.9961C134.912 54.9961 134.578 54.9902 134.238 54.9785ZM134.221 52.6934C134.561 52.7051 134.889 52.7109 135.205 52.7109C138.158 52.7109 140.408 52.1133 141.955 50.918C142.928 50.168 143.414 49.3184 143.414 48.3691C143.414 47.3027 142.816 46.3184 141.621 45.416C139.887 44.127 137.414 43.3594 134.203 43.1133L134.221 52.6934Z" fill="black"/>
</g>
<defs>
<filter id="filter0_d_6_2" x="0.318359" y="0.265625" width="158.346" height="74.6309" filterUnits="userSpaceOnUse" color-interpolation-filters="sRGB">
<feFlood flood-opacity="0" result="BackgroundImageFix"/>
<feColorMatrix in="SourceAlpha" type="matrix" values="0 0 0 0 0 0 0 0 0 0 0 0 0 0 0 0 0 0 127 0" result="hardAlpha"/>
<feOffset dy="4"/>
<feGaussianBlur stdDeviation="2"/>
<feComposite in2="hardAlpha" operator="out"/>
<feColorMatrix type="matrix" values="0 0 0 0 0 0 0 0 0 0 0 0 0 0 0 0 0 0 1 0"/>
<feBlend mode="normal" in2="BackgroundImageFix" result="effect1_dropShadow_6_2"/>
<feBlend mode="normal" in="SourceGraphic" in2="effect1_dropShadow_6_2" result="shape"/>
</filter>
</defs>
</svg>
