<svg width="151" height="67" viewBox="0 0 151 67" fill="none" xmlns="http://www.w3.org/2000/svg">
<g filter="url(#filter0_i_6_2)">
<path d="M18.0898 25.1211C18.0898 25.4609 17.9668 25.7305 17.7207 25.9297C17.4863 26.1172 17.2285 26.2109 16.9473 26.2109C16.7246 26.2109 16.5078 26.1465 16.2969 26.0176C16.0977 25.8887 15.9629 25.6953 15.8926 25.4375C15.6816 24.7227 14.7324 23.5566 13.0449 21.9395C11.709 20.6504 10.1973 19.3086 8.50977 17.9141C6.82227 16.5195 4.94727 15.0664 2.88477 13.5547C2.80273 16.9062 2.73828 19.5723 2.69141 21.5527C2.64453 23.5215 2.61523 24.8105 2.60352 25.4199C2.60352 25.7832 2.48047 26.0527 2.23438 26.2285C2 26.416 1.74219 26.5098 1.46094 26.5098C1.16797 26.5098 0.904297 26.416 0.669922 26.2285C0.435547 26.0527 0.318359 25.7832 0.318359 25.4199C0.318359 24.4941 0.371094 22.0684 0.476562 18.1426C0.582031 14.2051 0.716797 8.74414 0.880859 1.75977C0.892578 1.45508 1.01562 1.19727 1.25 0.986328C1.49609 0.763672 1.76562 0.652344 2.05859 0.652344C2.35156 0.652344 2.60938 0.769531 2.83203 1.00391C3.05469 1.22656 3.16602 1.49609 3.16602 1.8125C3.11914 3.54688 3.07812 5.19922 3.04297 6.76953C3.00781 8.32812 2.97266 9.78711 2.9375 11.1465L3.58789 10.6367C5.18164 9.41797 6.59961 8.29297 7.8418 7.26172C9.0957 6.21875 10.1797 5.27539 11.0938 4.43164C12.9453 2.7207 13.9883 1.68359 14.2227 1.32031C14.3516 1.12109 14.5098 0.951172 14.6973 0.810547C14.8848 0.658203 15.0957 0.582031 15.3301 0.582031C15.6348 0.582031 15.8926 0.705078 16.1035 0.951172C16.3262 1.18555 16.4375 1.44922 16.4375 1.74219C16.4375 1.96484 16.3789 2.16992 16.2617 2.35742C15.3828 3.72852 12.5234 6.37695 7.68359 10.3027C6.66406 11.123 5.80273 11.8086 5.09961 12.3594C6.99805 13.7773 8.75586 15.1602 10.373 16.5078C11.9902 17.8438 13.4551 19.1504 14.7676 20.4277C16.9824 22.5723 18.0898 24.1367 18.0898 25.1211ZM22.8008 0.40625C23.082 0.40625 23.334 0.523438 23.5566 0.757812C23.791 0.992187 23.9082 1.25586 23.9082 1.54883L24.1367 25.332C24.1367 25.707 24.0137 25.9883 23.7676 26.1758C23.5332 26.3633 23.2695 26.457 22.9766 26.457C22.6953 26.457 22.4375 26.3633 22.2031 26.1758C21.9688 26 21.8516 25.7305 21.8516 25.3672L21.623 1.56641C21.623 1.26172 21.7402 0.992187 21.9746 0.757812C22.2207 0.523438 22.4961 0.40625 22.8008 0.40625ZM45.4062 25.1211C45.4062 25.4609 45.2832 25.7305 45.0371 25.9297C44.8027 26.1172 44.5449 26.2109 44.2637 26.2109C44.041 26.2109 43.8242 26.1465 43.6133 26.0176C43.4141 25.8887 43.2793 25.6953 43.209 25.4375C42.998 24.7227 42.0488 23.5566 40.3613 21.9395C39.0254 20.6504 37.5137 19.3086 35.8262 17.9141C34.1387 16.5195 32.2637 15.0664 30.2012 13.5547C30.1191 16.9062 30.0547 19.5723 30.0078 21.5527C29.9609 23.5215 29.9316 24.8105 29.9199 25.4199C29.9199 25.7832 29.7969 26.0527 29.5508 26.2285C29.3164 26.416 29.0586 26.5098 28.7773 26.5098C28.4844 26.5098 28.2207 26.416 27.9863 26.2285C27.752 26.0527 27.6348 25.7832 27.6348 25.4199C27.6348 24.4941 27.6875 22.0684 27.793 18.1426C27.8984 14.2051 28.0332 8.74414 28.1973 1.75977C28.209 1.45508 28.332 1.19727 28.5664 0.986328C28.8125 0.763672 29.082 0.652344 29.375 0.652344C29.668 0.652344 29.9258 0.769531 30.1484 1.00391C30.3711 1.22656 30.4824 1.49609 30.4824 1.8125C30.4355 3.54688 30.3945 5.19922 30.3594 6.76953C30.3242 8.32812 30.2891 9.78711 30.2539 11.1465L30.9043 10.6367C32.498 9.41797 33.916 8.29297 35.1582 7.26172C36.4121 6.21875 37.4961 5.27539 38.4102 4.43164C40.2617 2.7207 41.3047 1.68359 41.5391 1.32031C41.668 1.12109 41.8262 0.951172 42.0137 0.810547C42.2012 0.658203 42.4121 0.582031 42.6465 0.582031C42.9512 0.582031 43.209 0.705078 43.4199 0.951172C43.6426 1.18555 43.7539 1.44922 43.7539 1.74219C43.7539 1.96484 43.6953 2.16992 43.5781 2.35742C42.6992 3.72852 39.8398 6.37695 35 10.3027C33.9805 11.123 33.1191 11.8086 32.416 12.3594C34.3145 13.7773 36.0723 15.1602 37.6895 16.5078C39.3066 17.8438 40.7715 19.1504 42.084 20.4277C44.2988 22.5723 45.4062 24.1367 45.4062 25.1211ZM50.0469 26.6855C49.7773 26.6855 49.5195 26.5684 49.2734 26.334C49.0273 26.1113 48.916 25.8594 48.9395 25.5781C49.3613 19.918 50.2695 14.8262 51.6641 10.3027C53.0586 5.80273 54.7227 2.82031 56.6562 1.35547C57.4531 0.757812 58.2266 0.458984 58.9766 0.458984C61.1094 0.458984 63.1074 2.81445 64.9707 7.52539C66.5996 11.6621 68.0176 17.0879 69.2246 23.8027L69.5059 25.3496C69.5176 25.4199 69.5234 25.4844 69.5234 25.543C69.5234 25.8945 69.3945 26.1641 69.1367 26.3516C68.8906 26.5508 68.6211 26.6504 68.3281 26.6504C68.082 26.6504 67.8535 26.5742 67.6426 26.4219C67.4316 26.2812 67.2969 26.0527 67.2383 25.7363L66.9746 24.207C66.7051 22.6953 66.4238 21.2539 66.1309 19.8828C65.8379 18.5 65.5332 17.1875 65.2168 15.9453H52.6133C51.9219 19.3672 51.459 22.6016 51.2246 25.6484C51.2012 25.9531 51.0723 26.1992 50.8379 26.3867C50.6035 26.5859 50.3398 26.6855 50.0469 26.6855ZM53.123 13.6602H64.6191C63.3066 8.98438 61.9473 5.76172 60.541 3.99219C60.2129 3.57031 59.8848 3.26563 59.5566 3.07812C59.252 2.91406 59.0293 2.83789 58.8887 2.84961C58.1387 2.94336 57.4004 3.53516 56.6738 4.625C55.2676 6.73438 54.084 9.74609 53.123 13.6602ZM85.1855 14.9785L85.2031 25.6836C85.2031 26.0469 85.0801 26.3223 84.834 26.5098C84.5996 26.6973 84.3418 26.791 84.0605 26.791C83.7676 26.791 83.5039 26.6973 83.2695 26.5098C83.0352 26.3223 82.918 26.0469 82.918 25.6836L82.8652 1.90039C82.8652 1.5957 82.9824 1.33203 83.2168 1.10938C83.4512 0.875 83.7148 0.757812 84.0078 0.757812C84.0195 0.757812 84.0312 0.757812 84.043 0.757812C88.332 0.898438 91.6309 1.8418 93.9395 3.58789C95.7441 4.94727 96.6465 6.54102 96.6465 8.36914C96.6465 10.0449 95.8672 11.4922 94.3086 12.7109C92.3516 14.2344 89.6445 14.9961 86.1875 14.9961C85.8594 14.9961 85.5254 14.9902 85.1855 14.9785ZM85.168 12.6934C85.5078 12.7051 85.8359 12.7109 86.1523 12.7109C89.1055 12.7109 91.3555 12.1133 92.9023 10.918C93.875 10.168 94.3613 9.31836 94.3613 8.36914C94.3613 7.30273 93.7637 6.31836 92.5684 5.41602C90.834 4.12695 88.3613 3.35938 85.1504 3.11328L85.168 12.6934ZM101.48 26.668C101.188 26.668 100.924 26.5449 100.689 26.2988C100.455 26.0645 100.35 25.7891 100.373 25.4727C100.432 24.3008 100.461 22.5488 100.461 20.2168C100.461 18.623 100.443 16.7539 100.408 14.6094C100.385 12.4531 100.344 10.0215 100.285 7.31445L100.162 1.90039C100.15 1.60742 100.244 1.34961 100.443 1.12695C100.654 0.904297 100.889 0.775391 101.146 0.740234C103.537 0.423828 105.664 0.265625 107.527 0.265625C110.105 0.265625 112.18 0.570312 113.75 1.17969C116.855 2.38672 118.408 4.83008 118.408 8.50977C118.408 13.0449 115.549 15.7871 109.83 16.7363C109.502 16.7832 109.145 16.8301 108.758 16.877C108.383 16.9238 107.973 16.959 107.527 16.9824L120.201 24.5059C120.553 24.7168 120.729 25.0391 120.729 25.4727C120.729 25.8242 120.553 26.1406 120.201 26.4219C119.861 26.7148 119.475 26.7324 119.041 26.4746L102.852 16.877C102.84 16.8652 102.822 16.8535 102.799 16.8418C102.775 16.8184 102.752 16.8008 102.729 16.7891C102.74 18.125 102.746 19.3203 102.746 20.375C102.746 22.7422 102.717 24.4824 102.658 25.5957C102.635 25.9004 102.506 26.1523 102.271 26.3516C102.037 26.5625 101.773 26.668 101.48 26.668ZM102.711 14.9961C102.922 14.832 103.168 14.75 103.449 14.75C103.895 14.7617 104.328 14.7676 104.75 14.7676C109.004 14.7676 111.998 14.2051 113.732 13.0801C115.326 12.0488 116.123 10.5195 116.123 8.49219C116.123 7.08594 115.854 5.97266 115.314 5.15234C114.143 3.39453 111.535 2.51562 107.492 2.51562C106.016 2.51562 104.34 2.63281 102.465 2.86719L102.57 7.2793C102.605 8.73242 102.635 10.1035 102.658 11.3926C102.682 12.6699 102.699 13.8711 102.711 14.9961ZM150.664 14.082C150.664 15.8516 150.318 17.4688 149.627 18.9336C148.947 20.3867 147.998 21.6406 146.779 22.6953C145.572 23.7383 144.172 24.5469 142.578 25.1211C140.984 25.6953 139.279 25.9824 137.463 25.9824C136.631 25.9824 135.793 25.9121 134.949 25.7715C134.105 25.6309 133.268 25.4082 132.436 25.1035C130.596 24.4355 128.961 23.3691 127.531 21.9043C126.102 20.4395 125.135 18.6465 124.631 16.5254C124.396 15.5527 124.279 14.5977 124.279 13.6602C124.279 12.3359 124.502 11.0762 124.947 9.88086C125.393 8.67383 125.973 7.58398 126.688 6.61133C127.402 5.62695 128.17 4.80078 128.99 4.13281C131.334 2.21094 134.029 1.19141 137.076 1.07422C137.205 1.0625 137.316 1.07422 137.41 1.10938C137.516 1.13281 137.609 1.15039 137.691 1.16211C139.918 1.2793 141.928 1.85938 143.721 2.90234C145.514 3.93359 146.949 5.14648 148.027 6.54102C149.785 8.82617 150.664 11.3398 150.664 14.082ZM137.199 3.35938C134.645 3.46484 132.354 4.34375 130.326 5.99609C128.299 7.64844 127.086 9.75195 126.688 12.3066C126.617 12.7754 126.582 13.25 126.582 13.7305C126.582 14.8203 126.746 15.8457 127.074 16.8066C127.402 17.7559 127.801 18.5527 128.27 19.1973C129.207 20.4863 130.449 21.5645 131.996 22.4316C133.555 23.2871 135.354 23.7148 137.393 23.7148C138.119 23.7148 138.863 23.6504 139.625 23.5215C141.207 23.2637 142.66 22.7246 143.984 21.9043C145.309 21.0723 146.375 20.0059 147.184 18.7051C147.992 17.3926 148.396 15.8867 148.396 14.1875C148.396 12.7227 148.115 11.3867 147.553 10.1797C147.002 8.96094 146.27 7.89453 145.355 6.98047C144.453 6.06641 143.469 5.33398 142.402 4.7832C140.844 3.97461 139.232 3.5293 137.568 3.44727C137.463 3.44727 137.34 3.41797 137.199 3.35938ZM30.8516 40.5117C31.1914 40.5117 31.4609 40.6406 31.6602 40.8984C31.8594 41.1562 31.959 41.4141 31.959 41.6719L32.1172 65.7891C32.1172 66.1523 32 66.4277 31.7656 66.6152C31.5312 66.8027 31.2676 66.8965 30.9746 66.8965C30.6934 66.8965 30.4297 66.8027 30.1836 66.6152C29.9492 66.4277 29.832 66.1523 29.832 65.7891L29.709 45.9258C27.5293 49.5586 25.9238 52.0195 24.8926 53.3086C23.8379 54.6211 23.0176 55.4297 22.4316 55.7344C22.1738 55.875 21.8984 55.9453 21.6055 55.9453C21.0195 55.9453 20.3691 55.623 19.6543 54.9785C18.8105 54.1934 17.9668 53.2969 17.123 52.2891C16.2793 51.2812 15.4648 50.2559 14.6797 49.2129C13.9062 48.1699 13.1738 47.1973 12.4824 46.2949L11.6387 45.1348L11.8848 65.5254C11.8848 65.9004 11.7617 66.1816 11.5156 66.3691C11.2812 66.5566 11.0176 66.6504 10.7246 66.6504C10.4434 66.6504 10.1855 66.5566 9.95117 66.3691C9.7168 66.1934 9.59961 65.9238 9.59961 65.5605L9.30078 41.6191C9.30078 41.2676 9.41797 40.9922 9.65234 40.793C9.88672 40.582 10.1562 40.4766 10.4609 40.4766C10.8125 40.4766 11.1055 40.6113 11.3398 40.8809L14.3281 44.9414C17.9727 49.7578 20.4043 52.6172 21.623 53.5195C22.4668 52.8281 23.457 51.5977 24.5938 49.8281C25.5781 48.293 26.4453 46.9043 27.1953 45.6621C27.957 44.4082 28.6016 43.3066 29.1289 42.3574L29.8145 41.1094C29.8965 40.957 30.0312 40.8223 30.2188 40.7051C30.418 40.5762 30.6289 40.5117 30.8516 40.5117ZM36.7402 66.6855C36.4707 66.6855 36.2129 66.5684 35.9668 66.334C35.7207 66.1113 35.6094 65.8594 35.6328 65.5781C36.0547 59.918 36.9629 54.8262 38.3574 50.3027C39.752 45.8027 41.416 42.8203 43.3496 41.3555C44.1465 40.7578 44.9199 40.459 45.6699 40.459C47.8027 40.459 49.8008 42.8145 51.6641 47.5254C53.293 51.6621 54.7109 57.0879 55.918 63.8027L56.1992 65.3496C56.2109 65.4199 56.2168 65.4844 56.2168 65.543C56.2168 65.8945 56.0879 66.1641 55.8301 66.3516C55.584 66.5508 55.3145 66.6504 55.0215 66.6504C54.7754 66.6504 54.5469 66.5742 54.3359 66.4219C54.125 66.2812 53.9902 66.0527 53.9316 65.7363L53.668 64.207C53.3984 62.6953 53.1172 61.2539 52.8242 59.8828C52.5312 58.5 52.2266 57.1875 51.9102 55.9453H39.3066C38.6152 59.3672 38.1523 62.6016 37.918 65.6484C37.8945 65.9531 37.7656 66.1992 37.5312 66.3867C37.2969 66.5859 37.0332 66.6855 36.7402 66.6855ZM39.8164 53.6602H51.3125C50 48.9844 48.6406 45.7617 47.2344 43.9922C46.9062 43.5703 46.5781 43.2656 46.25 43.0781C45.9453 42.9141 45.7227 42.8379 45.582 42.8496C44.832 42.9434 44.0938 43.5352 43.3672 44.625C41.9609 46.7344 40.7773 49.7461 39.8164 53.6602ZM77.4863 65.1211C77.4863 65.4609 77.3633 65.7305 77.1172 65.9297C76.8828 66.1172 76.625 66.2109 76.3438 66.2109C76.1211 66.2109 75.9043 66.1465 75.6934 66.0176C75.4941 65.8887 75.3594 65.6953 75.2891 65.4375C75.0781 64.7227 74.1289 63.5566 72.4414 61.9395C71.1055 60.6504 69.5938 59.3086 67.9062 57.9141C66.2188 56.5195 64.3438 55.0664 62.2812 53.5547C62.1992 56.9062 62.1348 59.5723 62.0879 61.5527C62.041 63.5215 62.0117 64.8105 62 65.4199C62 65.7832 61.877 66.0527 61.6309 66.2285C61.3965 66.416 61.1387 66.5098 60.8574 66.5098C60.5645 66.5098 60.3008 66.416 60.0664 66.2285C59.832 66.0527 59.7148 65.7832 59.7148 65.4199C59.7148 64.4941 59.7676 62.0684 59.873 58.1426C59.9785 54.2051 60.1133 48.7441 60.2773 41.7598C60.2891 41.4551 60.4121 41.1973 60.6465 40.9863C60.8926 40.7637 61.1621 40.6523 61.4551 40.6523C61.748 40.6523 62.0059 40.7695 62.2285 41.0039C62.4512 41.2266 62.5625 41.4961 62.5625 41.8125C62.5156 43.5469 62.4746 45.1992 62.4395 46.7695C62.4043 48.3281 62.3691 49.7871 62.334 51.1465L62.9844 50.6367C64.5781 49.418 65.9961 48.293 67.2383 47.2617C68.4922 46.2188 69.5762 45.2754 70.4902 44.4316C72.3418 42.7207 73.3848 41.6836 73.6191 41.3203C73.748 41.1211 73.9062 40.9512 74.0938 40.8105C74.2812 40.6582 74.4922 40.582 74.7266 40.582C75.0312 40.582 75.2891 40.7051 75.5 40.9512C75.7227 41.1855 75.834 41.4492 75.834 41.7422C75.834 41.9648 75.7754 42.1699 75.6582 42.3574C74.7793 43.7285 71.9199 46.377 67.0801 50.3027C66.0605 51.123 65.1992 51.8086 64.4961 52.3594C66.3945 53.7773 68.1523 55.1602 69.7695 56.5078C71.3867 57.8438 72.8516 59.1504 74.1641 60.4277C76.3789 62.5723 77.4863 64.1367 77.4863 65.1211ZM87.9102 43.0957C87.1719 43.0957 86.3984 43.1074 85.5898 43.1309C84.7812 43.1426 84.1016 43.166 83.5508 43.2012C83.6211 46.5762 83.6562 49.6113 83.6562 52.3066L96.4004 52.3945C96.7637 52.3945 97.0332 52.5176 97.209 52.7637C97.3965 52.998 97.4902 53.2559 97.4902 53.5371C97.4902 53.8301 97.3965 54.0938 97.209 54.3281C97.0332 54.5625 96.7578 54.6797 96.3828 54.6797L83.6387 54.5918C83.627 56.1504 83.6035 57.5508 83.5684 58.793C83.5332 60.0352 83.4922 61.1191 83.4453 62.0449L83.3574 63.7324C87.2012 63.7207 90.3359 63.6914 92.7617 63.6445C95.1992 63.5859 96.9395 63.5156 97.9824 63.4336C98.334 63.3984 98.6035 63.5156 98.791 63.7852C98.9785 64.043 99.0723 64.3125 99.0723 64.5938C99.0723 64.8633 98.9902 65.1152 98.8262 65.3496C98.6621 65.5723 98.4102 65.6953 98.0703 65.7188C96.9219 65.8242 95.0176 65.9004 92.3574 65.9473C89.709 65.9941 86.3105 66.0176 82.1621 66.0176C81.8691 66.0176 81.6055 65.9004 81.3711 65.666C81.1367 65.4316 81.0195 65.1504 81.0195 64.8223C81.0195 64.6934 81.0312 64.2949 81.0547 63.627C81.0781 62.9473 81.1074 62.1035 81.1426 61.0957C81.1777 60.0879 81.2129 59.0215 81.248 57.8965C81.2832 56.7598 81.3125 55.6641 81.3359 54.6094C81.3594 53.543 81.3711 52.6172 81.3711 51.832C81.3711 50.3672 81.3477 48.8262 81.3008 47.209C81.2656 45.5801 81.248 43.8809 81.248 42.1113C81.248 41.8184 81.3535 41.5605 81.5645 41.3379C81.7871 41.1152 82.0391 40.998 82.3203 40.9863L83.5859 40.8984C84.5938 40.8398 85.6367 40.8047 86.7148 40.793C87.793 40.7812 88.9062 40.793 90.0547 40.8281C94.5664 40.9688 97.7656 41.4609 99.6523 42.3047C100.098 42.5039 100.314 42.873 100.303 43.4121C100.303 43.7051 100.203 43.9629 100.004 44.1855C99.8164 44.3965 99.5586 44.502 99.2305 44.502C99.0664 44.502 98.8965 44.4609 98.7207 44.3789C96.7754 43.5234 93.1719 43.0957 87.9102 43.0957ZM113.732 64.0488C115.361 64.0488 116.715 63.7207 117.793 63.0645C118.871 62.3965 119.727 61.4766 120.359 60.3047C121.004 59.1211 121.461 57.7559 121.73 56.209C122 54.6621 122.135 53.0039 122.135 51.2344C122.135 48.5391 121.812 45.3574 121.168 41.6895C121.156 41.6191 121.15 41.5488 121.15 41.4785C121.15 41.127 121.273 40.8574 121.52 40.6699C121.777 40.4707 122.053 40.3711 122.346 40.3711C122.592 40.3711 122.814 40.4473 123.014 40.5996C123.225 40.7402 123.359 40.9688 123.418 41.2852C124.074 45.0703 124.402 48.4336 124.402 51.375C124.402 57.5859 122.926 61.9102 119.973 64.3477C119.199 64.9922 118.273 65.4902 117.195 65.8418C116.117 66.1934 114.975 66.3691 113.768 66.3691C111.705 66.3691 110.07 65.9766 108.863 65.1914C107.656 64.4062 106.73 63.3223 106.086 61.9395C105.453 60.5449 104.961 58.957 104.609 57.1758C104.094 54.5039 103.836 50.7305 103.836 45.8555C103.836 44.5547 103.854 43.1836 103.889 41.7422C103.9 41.4375 104.023 41.1797 104.258 40.9688C104.504 40.7461 104.773 40.6348 105.066 40.6348C105.359 40.6348 105.617 40.752 105.84 40.9863C106.062 41.2207 106.174 41.4961 106.174 41.8125C106.139 43.3359 106.121 44.7656 106.121 46.1016C106.121 50.7422 106.361 54.2812 106.842 56.7188C107.475 59.9062 108.365 61.9395 109.514 62.8184C110.592 63.6387 111.998 64.0488 113.732 64.0488ZM130.238 54.9785L130.256 65.6836C130.256 66.0469 130.133 66.3223 129.887 66.5098C129.652 66.6973 129.395 66.791 129.113 66.791C128.82 66.791 128.557 66.6973 128.322 66.5098C128.088 66.3223 127.971 66.0469 127.971 65.6836L127.918 41.9004C127.918 41.5957 128.035 41.332 128.27 41.1094C128.504 40.875 128.768 40.7578 129.061 40.7578C129.072 40.7578 129.084 40.7578 129.096 40.7578C133.385 40.8984 136.684 41.8418 138.992 43.5879C140.797 44.9473 141.699 46.541 141.699 48.3691C141.699 50.0449 140.92 51.4922 139.361 52.7109C137.404 54.2344 134.697 54.9961 131.24 54.9961C130.912 54.9961 130.578 54.9902 130.238 54.9785ZM130.221 52.6934C130.561 52.7051 130.889 52.7109 131.205 52.7109C134.158 52.7109 136.408 52.1133 137.955 50.918C138.928 50.168 139.414 49.3184 139.414 48.3691C139.414 47.3027 138.816 46.3184 137.621 45.416C135.887 44.127 133.414 43.3594 130.203 43.1133L130.221 52.6934Z" fill="black"/>
</g>
<defs>
<filter id="filter0_i_6_2" x="0.318359" y="0.265625" width="150.346" height="70.6309" filterUnits="userSpaceOnUse" color-interpolation-filters="sRGB">
<feFlood flood-opacity="0" result="BackgroundImageFix"/>
<feBlend mode="normal" in="SourceGraphic" in2="BackgroundImageFix" result="shape"/>
<feColorMatrix in="SourceAlpha" type="matrix" values="0 0 0 0 0 0 0 0 0 0 0 0 0 0 0 0 0 0 127 0" result="hardAlpha"/>
<feOffset dy="4"/>
<feGaussianBlur stdDeviation="2"/>
<feComposite in2="hardAlpha" operator="arithmetic" k2="-1" k3="1"/>
<feColorMatrix type="matrix" values="0 0 0 0 0 0 0 0 0 0 0 0 0 0 0 0 0 0 0.25 0"/>
<feBlend mode="normal" in2="shape" result="effect1_innerShadow_6_2"/>
</filter>
</defs>
</svg>
