<svg width="60" height="60" viewBox="0 0 60 60" fill="none" xmlns="http://www.w3.org/2000/svg">
<path d="M59.9824 0H0.0175781C0.00787 0 0 0.00787 0 0.0175781V59.9824C0 59.9921 0.00787 60 0.0175781 60H59.9824C59.9921 60 60 59.9921 60 59.9824V0.0175781C60 0.00787 59.9921 0 59.9824 0Z" fill="#37AEE2"/>
<path d="M23.3203 47.3438C22.0312 47.3438 22.1484 46.875 21.7969 45.7031L18.0469 33.3984L46.7578 16.5234" fill="#C8DAEA"/>
<path d="M23.3203 47.3438C24.1406 47.3438 24.6094 46.875 25.1953 46.4062L30.4688 41.3672L23.9062 37.3828" fill="#A9C9DD"/>
<path d="M23.9063 37.3828L39.7266 48.9844C41.3672 50.0391 42.7734 49.4531 43.2422 47.3438L49.6875 17.1094C50.2734 14.5312 48.6328 13.3594 46.875 14.1797L9.25782 28.7109C6.79688 29.6484 6.79688 31.1719 8.78907 31.7578L18.5156 34.8047L40.7813 20.625C41.8359 20.0391 42.7734 20.2734 42.0703 21.0937" fill="#F6FBFE"/>
</svg>
