<svg width="60" height="60" viewBox="0 0 60 60" fill="none" xmlns="http://www.w3.org/2000/svg">
<g clip-path="url(#clip0_7_45)">
<path d="M28.5452 0.0347292C12.6992 0.789222 0.194575 13.9858 0.242646 29.8497C0.257282 34.6814 1.42375 39.242 3.48146 43.2716L0.322142 58.6072C0.15124 59.4368 0.89942 60.1631 1.72351 59.968L16.7507 56.4078C20.6114 58.3309 24.9478 59.4417 29.5372 59.5117C45.7332 59.7591 59.2379 46.899 59.7427 30.7089C60.2838 13.3543 45.9605 -0.794668 28.5452 0.0347292ZM46.4758 46.2334C42.075 50.6343 36.2237 53.0579 30.0001 53.0579C26.3559 53.0579 22.867 52.2403 19.6299 50.6278L17.5372 49.5853L8.32396 51.7682L10.2633 42.3539L9.23228 40.335C7.55182 37.0439 6.69975 33.4851 6.69975 29.7576C6.69975 23.5338 9.12337 17.6827 13.5242 13.2817C17.8857 8.92018 23.8324 6.4571 30.0005 6.4571C36.2241 6.45725 42.0751 8.88087 46.4759 13.2815C50.8768 17.6824 53.3004 23.5335 53.3005 29.7571C53.3004 35.9254 50.8373 41.8721 46.4758 46.2334Z" fill="#7AD06D"/>
<path d="M44.4419 36.2109L38.6779 34.5559C37.9201 34.3383 37.104 34.5533 36.5519 35.1159L35.1423 36.552C34.548 37.1576 33.6461 37.3521 32.8595 37.0339C30.1328 35.9304 24.397 30.8306 22.9322 28.2797C22.5097 27.5439 22.5795 26.6239 23.0984 25.9525L24.329 24.3605C24.8112 23.7367 24.9129 22.899 24.5941 22.1779L22.169 16.6931C21.5881 15.3794 19.9094 14.997 18.8127 15.9246C17.204 17.2852 15.2952 19.3528 15.0632 21.6434C14.6541 25.6819 16.386 30.7728 22.9355 36.8856C30.502 43.9477 36.5612 44.8807 40.5063 43.925C42.7439 43.3831 44.5322 41.2103 45.6607 39.4312C46.4302 38.2183 45.8226 36.6074 44.4419 36.2109Z" fill="#7AD06D"/>
</g>
<defs>
<clipPath id="clip0_7_45">
<rect width="60" height="60" fill="white"/>
</clipPath>
</defs>
</svg>
